<svg xmlns="http://www.w3.org/2000/svg" width="136.82" height="60" viewBox="0 0 136.82 60">
  <g id="Group_85" data-name="Group 85" transform="translate(-837.648 -1470)">
    <g id="Group_57" data-name="Group 57" transform="translate(837.648 1470)">
      <path id="Path_91" data-name="Path 91" d="M379.268,516.8a7.346,7.346,0,1,0-7.348-7.349A7.355,7.355,0,0,0,379.268,516.8Zm0-13.2a5.849,5.849,0,1,1-5.853,5.846A5.853,5.853,0,0,1,379.268,503.6Z" transform="translate(-364.693 -464.487)" fill="#b1994d"/>
      <path id="Path_92" data-name="Path 92" d="M376.148,520.9a14.571,14.571,0,1,0-14.579-14.579A14.587,14.587,0,0,0,376.148,520.9Zm0-27.647a13.075,13.075,0,1,1-13.083,13.068A13.083,13.083,0,0,1,376.148,493.253Z" transform="translate(-361.569 -461.363)" fill="#b1994d"/>
      <path id="Path_93" data-name="Path 93" d="M427.249,514.274a5.912,5.912,0,1,0,5.914-5.909A5.921,5.921,0,0,0,427.249,514.274Zm10.327,0a4.415,4.415,0,1,1-4.413-4.412A4.421,4.421,0,0,1,437.576,514.274Z" transform="translate(-381.395 -466.377)" fill="#b1994d"/>
      <path id="Path_94" data-name="Path 94" d="M366.79,479.716a17.12,17.12,0,0,1,26.471,19.794.749.749,0,0,0,.7,1.024h4.9a.748.748,0,0,0,.748-.748v-3.572h3.377a11.565,11.565,0,1,0,16.475-10.559v-7.938a.749.749,0,0,0-.646-.741l-6.19-.851V469.55h.828a.748.748,0,0,0,.748-.748v-7.4a2.324,2.324,0,1,0-4.648,0v7.4a.748.748,0,0,0,.748.748h.829v6.367l-11.52-1.585V448.97a.748.748,0,0,0-.748-.748H370.528a.748.748,0,0,0-.748.744l-.122,27.27a18.645,18.645,0,0,0-3.792,2.3.748.748,0,0,0,.924,1.177Zm44.255-18.31a.828.828,0,1,1,1.657,0v6.648h-1.657Zm-12.936,37.631h-3.085a18.609,18.609,0,0,0,.582-9.458h2.5Zm26.507-2.918a10.071,10.071,0,1,1-10.065-10.064A10.08,10.08,0,0,1,424.616,496.119Zm-13.491-18.692v2.5h-4.3a.748.748,0,0,0,0,1.5h5.052a.748.748,0,0,0,.748-.748v-3.041l5.339.734v6.7a12.463,12.463,0,0,0-3.41-.509,11.6,11.6,0,0,0-11.489,10.157H399.6V475.843Zm-39.852-27.709h26.835v38.365h-2.873a18.613,18.613,0,0,0-24.078-12.451Z" transform="translate(-362.78 -448.222)" fill="#b1994d"/>
      <path id="Path_95" data-name="Path 95" d="M397.768,482.3a.748.748,0,0,0,1.347-.448V454.684a.748.748,0,0,0-.748-.748H378a.748.748,0,0,0-.748.745l-.089,18.571a.747.747,0,0,0,.847.744A20.918,20.918,0,0,1,397.768,482.3Zm-19.1-9.885.082-16.982h18.874v24.33a22.388,22.388,0,0,0-16.765-7.456C380.132,472.307,379.4,472.343,378.664,472.415Z" transform="translate(-366.276 -449.947)" fill="#b1994d"/>
    </g>
    <g id="Group_58" data-name="Group 58" transform="translate(911.141 1470.788)">
      <path id="Path_96" data-name="Path 96" d="M470.226,490.025a14.953,14.953,0,0,0-10.639-4.406.748.748,0,0,0-.748.748,15.052,15.052,0,0,0,14.3,15.009v6.439a.748.748,0,0,0,1.5,0v-6.439a15.053,15.053,0,0,0,14.3-15.009.748.748,0,0,0-.748-.748,14.991,14.991,0,0,0-13.551,8.531v-7.073a15.052,15.052,0,0,0,14.3-15.008.748.748,0,0,0-.748-.748,14.989,14.989,0,0,0-13.551,8.53v-7.072a15.053,15.053,0,0,0,14.3-15.009V450.1a.748.748,0,0,0-1.5,0v6.961a14.94,14.94,0,0,0-12.8,8.493V450.1a.748.748,0,0,0-1.5,0v15.454a15.081,15.081,0,0,0-2.912-4.125,14.927,14.927,0,0,0-9.891-4.369V450.1a.748.748,0,0,0-1.5,0v7.672a15.052,15.052,0,0,0,14.3,15.009v7.072a14.988,14.988,0,0,0-13.551-8.531.748.748,0,0,0-.748.748,15.051,15.051,0,0,0,14.3,15.008v7.074A15.083,15.083,0,0,0,470.226,490.025Zm-9.87-2.889a13.552,13.552,0,0,1,12.76,12.761A13.572,13.572,0,0,1,460.356,487.136Zm18.247,3.947a13.455,13.455,0,0,1,8.812-3.947A13.572,13.572,0,0,1,474.655,499.9,13.468,13.468,0,0,1,478.6,491.082Zm0-14.3a13.447,13.447,0,0,1,8.812-3.945A13.57,13.57,0,0,1,474.655,485.6,13.467,13.467,0,0,1,478.6,476.784Zm0-14.3a13.447,13.447,0,0,1,8.812-3.946,13.572,13.572,0,0,1-12.761,12.76A13.468,13.468,0,0,1,478.6,462.485Zm-18.247-3.946a13.55,13.55,0,0,1,12.76,12.76A13.571,13.571,0,0,1,460.356,458.539Zm0,14.3a13.549,13.549,0,0,1,12.76,12.759A13.57,13.57,0,0,1,460.356,472.838Z" transform="translate(-458.839 -449.35)" fill="#b1994d"/>
      <path id="Path_97" data-name="Path 97" d="M536.533,457.77V450.1a.748.748,0,0,0-1.5,0v6.961a14.92,14.92,0,0,0-9.891,4.369,15.083,15.083,0,0,0-2.913,4.125V450.1a.748.748,0,0,0-1.5,0v15.454a14.938,14.938,0,0,0-12.8-8.494V450.1a.748.748,0,0,0-1.5,0v7.672a15.053,15.053,0,0,0,14.3,15.009v7.072a14.987,14.987,0,0,0-13.551-8.531.748.748,0,0,0-.748.748,15.052,15.052,0,0,0,14.3,15.008v7.074a14.989,14.989,0,0,0-13.551-8.531.748.748,0,0,0-.748.748,15.053,15.053,0,0,0,14.3,15.009v6.439a.748.748,0,0,0,1.5,0v-6.439a15.052,15.052,0,0,0,14.3-15.009.748.748,0,0,0-.748-.748,14.992,14.992,0,0,0-13.551,8.531v-7.074a15.051,15.051,0,0,0,14.3-15.008.748.748,0,0,0-.748-.748,14.988,14.988,0,0,0-13.551,8.531v-7.072A15.053,15.053,0,0,0,536.533,457.77ZM526.2,462.485a13.447,13.447,0,0,1,8.811-3.946,13.57,13.57,0,0,1-12.76,12.76A13.463,13.463,0,0,1,526.2,462.485Zm-18.247-3.946a13.551,13.551,0,0,1,12.76,12.76A13.57,13.57,0,0,1,507.957,458.539Zm0,14.3a13.55,13.55,0,0,1,12.76,12.759A13.569,13.569,0,0,1,507.957,472.838Zm0,14.3a13.553,13.553,0,0,1,12.76,12.761A13.571,13.571,0,0,1,507.957,487.136Zm18.247,3.947a13.453,13.453,0,0,1,8.811-3.947,13.571,13.571,0,0,1-12.76,12.761A13.466,13.466,0,0,1,526.2,491.082Zm0-14.3a13.447,13.447,0,0,1,8.811-3.945,13.569,13.569,0,0,1-12.76,12.759A13.464,13.464,0,0,1,526.2,476.784Z" transform="translate(-473.207 -449.35)" fill="#b1994d"/>
    </g>
  </g>
</svg>
