<svg xmlns="http://www.w3.org/2000/svg" width="135.848" height="433.98" viewBox="0 0 135.848 433.98">
  <g id="Group_1898" data-name="Group 1898" transform="translate(-1024.802 -218.317)">
    <g id="leaf-left-line-reg" transform="translate(1025.801 275.316)">
      <path id="leaf-left-line-reg-2" data-name="leaf-left-line-reg" d="M1911.867,974.765c1.083,7.555,4.32,12.393,12.4,22.631l36.749,46.862c5.4,7.007,9.7,12.935,9.7,24.252v33.1c0-11.315-1.078-15.632-6.477-22.631l-37.809-48.337c-8.082-10.229-12.037-15.332-12.885-27.31Z" transform="translate(-1911.867 -974.765)" fill="none" stroke="#fff" stroke-miterlimit="10" stroke-width="2"/>
    </g>
    <g id="leaf-left-line-reg-3" data-name="leaf-left-line-reg" transform="translate(1025.801 338.737)">
      <path id="leaf-left-line-reg-4" data-name="leaf-left-line-reg" d="M1911.867,974.765c1.083,7.555,4.32,12.393,12.4,22.631l36.749,46.862c5.4,7.007,9.7,12.935,9.7,24.252v33.1c0-11.315-1.078-15.632-6.477-22.631l-37.809-48.337c-8.082-10.229-12.037-15.332-12.885-27.31Z" transform="translate(-1911.867 -974.765)" fill="none" stroke="#fff" stroke-miterlimit="10" stroke-width="2"/>
    </g>
    <g id="leaf-left-line-reg-5" data-name="leaf-left-line-reg" transform="translate(1025.801 402.158)">
      <path id="leaf-left-line-reg-6" data-name="leaf-left-line-reg" d="M1911.867,974.765c1.083,7.555,4.32,12.393,12.4,22.631l36.749,46.862c5.4,7.007,9.7,12.935,9.7,24.252v33.1c0-11.315-1.078-15.632-6.477-22.631l-37.809-48.337c-8.082-10.229-12.037-15.332-12.885-27.31Z" transform="translate(-1911.867 -974.765)" fill="none" stroke="#fff" stroke-miterlimit="10" stroke-width="2"/>
    </g>
    <g id="leaf-right-line-lrg" transform="translate(1084.646 218.459)">
      <path id="Path_244" data-name="Path 244" d="M1898.227,954.066c-1.083,7.556-4.321,12.393-12.4,22.631l-52.908,67.561c-5.4,7.007-9.7,12.935-9.7,24.252v33.1c0-11.315,1.079-15.632,6.478-22.631l53.968-69.036c8.082-10.228,12.037-15.332,12.885-27.31Z" transform="translate(-1823.221 -954.066)" fill="none" stroke="#fff" stroke-miterlimit="10" stroke-width="2"/>
    </g>
    <g id="leaf-right-line-reg" transform="translate(1084.646 299.579)">
      <path id="Path_245" data-name="Path 245" d="M1970.713,974.765c-1.083,7.555-4.32,12.393-12.4,22.631l-36.749,46.862c-5.4,7.007-9.7,12.935-9.7,24.252v33.1c0-11.315,1.078-15.632,6.477-22.631l37.809-48.337c8.082-10.229,12.037-15.332,12.885-27.31Z" transform="translate(-1911.867 -974.765)" fill="none" stroke="#fff" stroke-miterlimit="10" stroke-width="2"/>
    </g>
    <g id="leaf-right-line-reg-2" data-name="leaf-right-line-reg" transform="translate(1084.646 363)">
      <path id="Path_245-2" data-name="Path 245" d="M1970.713,974.765c-1.083,7.555-4.32,12.393-12.4,22.631l-36.749,46.862c-5.4,7.007-9.7,12.935-9.7,24.252v33.1c0-11.315,1.078-15.632,6.477-22.631l37.809-48.337c8.082-10.229,12.037-15.332,12.885-27.31Z" transform="translate(-1911.867 -974.765)" fill="none" stroke="#fff" stroke-miterlimit="10" stroke-width="2"/>
    </g>
    <line data-start="0" data-duration="10" id="Line_70" data-name="Line 70" y2="124.798" transform="translate(1084.646 527.5)" fill="none" stroke="#fff" stroke-width="2"/>
  </g>
</svg>
