<svg xmlns="http://www.w3.org/2000/svg" width="520.684" height="496.041" viewBox="0 0 520.684 496.041">
  <g id="Group_2249" data-name="Group 2249" transform="translate(-172 -1772.959)">
    <g id="Group_2143" data-name="Group 2143" transform="translate(321 1929.258)">
      <g id="leaf-right-fill-reg" transform="translate(40.699 58.626)">
        <path id="Path_243" data-name="Path 243" d="M1729.234,977.613c-.628,4.379-2.5,7.183-7.188,13.117L1702,1016.241c-3.13,4.062-5.619,7.5-5.619,14.057v15.5h2.8l0-.022c0-6.558.625-9.061,3.754-13.117l19.113-24.315c4.684-5.929,6.977-8.887,7.468-15.829.672-9.495.972-14.905.972-14.905Z" transform="translate(-1696.377 -977.613)" fill="#b1994d"/>
      </g>
      <g id="leaf-right-fill-reg-2" data-name="leaf-right-fill-reg" transform="translate(40.699 92.72)">
        <path id="Path_243-2" data-name="Path 243" d="M1729.234,977.613c-.628,4.379-2.5,7.183-7.188,13.117L1702,1016.241c-3.13,4.062-5.619,7.5-5.619,14.057v15.5h2.8l0-.022c0-6.558.625-9.061,3.754-13.117l19.113-24.315c4.684-5.929,6.977-8.887,7.468-15.829.672-9.495.972-14.905.972-14.905Z" transform="translate(-1696.377 -977.613)" fill="#b1994d"/>
      </g>
      <g id="leaf-right-fill-reg-3" data-name="leaf-right-fill-reg" transform="translate(40.699 126.814)">
        <path id="Path_243-3" data-name="Path 243" d="M1729.234,977.613c-.628,4.379-2.5,7.183-7.188,13.117L1702,1016.241c-3.13,4.062-5.619,7.5-5.619,14.057v15.5h2.8l0-.022c0-6.558.625-9.061,3.754-13.117l19.113-24.315c4.684-5.929,6.977-8.887,7.468-15.829.672-9.495.972-14.905.972-14.905Z" transform="translate(-1696.377 -977.613)" fill="#b1994d"/>
      </g>
      <g id="leaf-right-fill-reg-4" data-name="leaf-right-fill-reg" transform="translate(40.699 160.908)">
        <path id="Path_243-4" data-name="Path 243" d="M1729.234,977.613c-.628,4.379-2.5,7.183-7.188,13.117L1702,1016.241c-3.13,4.062-5.619,7.5-5.619,14.057v15.5h2.8l0-.022c0-6.558.625-9.061,3.754-13.117l19.113-24.315c4.684-5.929,6.977-8.887,7.468-15.829.672-9.495.972-14.905.972-14.905Z" transform="translate(-1696.377 -977.613)" fill="#b1994d"/>
      </g>
      <g id="leaf-right-fill-reg-5" data-name="leaf-right-fill-reg" transform="translate(40.699 195.002)">
        <path id="Path_243-5" data-name="Path 243" d="M1729.234,977.613c-.628,4.379-2.5,7.183-7.188,13.117L1702,1016.241c-3.13,4.062-5.619,7.5-5.619,14.057v15.5h2.8l0-.022c0-6.558.625-9.061,3.754-13.117l19.113-24.315c4.684-5.929,6.977-8.887,7.468-15.829.672-9.495.972-14.905.972-14.905Z" transform="translate(-1696.377 -977.613)" fill="#b1994d"/>
      </g>
      <g id="leaf-right-fill-reg-6" data-name="leaf-right-fill-reg" transform="translate(40.699 229.096)">
        <path id="Path_243-6" data-name="Path 243" d="M1729.234,977.613c-.628,4.379-2.5,7.183-7.188,13.117L1702,1016.241c-3.13,4.062-5.619,7.5-5.619,14.057v15.5h2.8l0-.022c0-6.558.625-9.061,3.754-13.117l19.113-24.315c4.684-5.929,6.977-8.887,7.468-15.829.672-9.495.972-14.905.972-14.905Z" transform="translate(-1696.377 -977.613)" fill="#b1994d"/>
      </g>
      <g id="leaf-left-fill-reg" transform="translate(9.489 46.168)">
        <path id="leaf-left-fill-lrg" d="M1697.628,977.613c.627,4.379,2.5,7.183,7.188,13.117l20.05,25.51c3.129,4.062,5.619,7.5,5.619,14.056v15.5h-2.8l0-.022c0-6.558-.625-9.061-3.754-13.117l-19.113-24.315c-4.684-5.929-6.977-8.886-7.468-15.829-.672-9.5-.971-14.905-.971-14.905Z" transform="translate(-1696.377 -977.613)" fill="#b1994d"/>
      </g>
      <g id="leaf-left-fill-reg-2" data-name="leaf-left-fill-reg" transform="translate(9.489 80.262)">
        <path id="leaf-left-fill-lrg-2" data-name="leaf-left-fill-lrg" d="M1697.628,977.613c.627,4.379,2.5,7.183,7.188,13.117l20.05,25.51c3.129,4.062,5.619,7.5,5.619,14.056v15.5h-2.8l0-.022c0-6.558-.625-9.061-3.754-13.117l-19.113-24.315c-4.684-5.929-6.977-8.886-7.468-15.829-.672-9.5-.971-14.905-.971-14.905Z" transform="translate(-1696.377 -977.613)" fill="#b1994d"/>
      </g>
      <g id="leaf-left-fill-reg-3" data-name="leaf-left-fill-reg" transform="translate(9.489 114.356)">
        <path id="leaf-left-fill-lrg-3" data-name="leaf-left-fill-lrg" d="M1697.628,977.613c.627,4.379,2.5,7.183,7.188,13.117l20.05,25.51c3.129,4.062,5.619,7.5,5.619,14.056v15.5h-2.8l0-.022c0-6.558-.625-9.061-3.754-13.117l-19.113-24.315c-4.684-5.929-6.977-8.886-7.468-15.829-.672-9.5-.971-14.905-.971-14.905Z" transform="translate(-1696.377 -977.613)" fill="#b1994d"/>
      </g>
      <g id="leaf-left-fill-reg-4" data-name="leaf-left-fill-reg" transform="translate(9.489 182.544)">
        <path id="leaf-left-fill-lrg-4" data-name="leaf-left-fill-lrg" d="M1697.628,977.613c.627,4.379,2.5,7.183,7.188,13.117l20.05,25.51c3.129,4.062,5.619,7.5,5.619,14.056v15.5h-2.8l0-.022c0-6.558-.625-9.061-3.754-13.117l-19.113-24.315c-4.684-5.929-6.977-8.886-7.468-15.829-.672-9.5-.971-14.905-.971-14.905Z" transform="translate(-1696.377 -977.613)" fill="#b1994d"/>
      </g>
      <g id="leaf-left-fill-reg-5" data-name="leaf-left-fill-reg" transform="translate(9.489 216.638)">
        <path id="leaf-left-fill-lrg-5" data-name="leaf-left-fill-lrg" d="M1697.628,977.613c.627,4.379,2.5,7.183,7.188,13.117l20.05,25.51c3.129,4.062,5.619,7.5,5.619,14.056v15.5h-2.8l0-.022c0-6.558-.625-9.061-3.754-13.117l-19.113-24.315c-4.684-5.929-6.977-8.886-7.468-15.829-.672-9.5-.971-14.905-.971-14.905Z" transform="translate(-1696.377 -977.613)" fill="#b1994d"/>
      </g>
      <g id="leaf-stem-fill" transform="translate(40.699 75.326)">
        <rect id="leaf-stem-fill-2" data-name="leaf-stem-fill" width="2.82" height="264.416" fill="#b1994d"/>
      </g>
      <g id="leaf-left-fill-lrg-6" data-name="leaf-left-fill-lrg" transform="translate(0 0)">
        <path id="leaf-left-fill-lrg-7" data-name="leaf-left-fill-lrg" d="M1613.072,956.915c.629,4.383,2.506,7.189,7.195,13.129l29.443,37.545c3.132,4.065,5.625,7.5,5.625,14.07v15.518h-2.8l0-.022c0-6.565-.626-9.07-3.758-13.13l-28.505-36.347c-4.688-5.934-6.983-8.895-7.475-15.844-.672-9.5-.972-14.919-.972-14.919Z" transform="translate(-1611.82 -956.915)" fill="#b1994d"/>
      </g>
    </g>
    <g id="Group_2145" data-name="Group 2145" transform="translate(172 1975.887)">
      <g id="leaf-right-fill-lrg" transform="translate(31.21)">
        <path id="Path_242" data-name="Path 242" d="M1654.043,956.915c-.627,4.379-2.5,7.183-7.188,13.117l-29.415,37.508c-3.129,4.061-5.619,7.5-5.619,14.057v15.5h2.8l0-.022c0-6.558.625-9.061,3.755-13.117l28.478-36.312c4.684-5.928,6.977-8.887,7.468-15.829.672-9.494.971-14.9.971-14.9Z" transform="translate(-1611.82 -956.915)" fill="#b1994d"/>
      </g>
      <g id="leaf-right-fill-reg-7" data-name="leaf-right-fill-reg" transform="translate(31.21 46.091)">
        <path id="Path_243-7" data-name="Path 243" d="M1729.234,977.613c-.628,4.379-2.5,7.183-7.188,13.117L1702,1016.241c-3.13,4.062-5.619,7.5-5.619,14.057v15.5h2.8l0-.022c0-6.558.625-9.061,3.754-13.117l19.113-24.315c4.684-5.929,6.977-8.887,7.468-15.829.672-9.495.972-14.905.972-14.905Z" transform="translate(-1696.377 -977.613)" fill="#b1994d"/>
      </g>
      <g id="leaf-right-fill-reg-8" data-name="leaf-right-fill-reg" transform="translate(31.21 114.279)">
        <path id="Path_243-8" data-name="Path 243" d="M1729.234,977.613c-.628,4.379-2.5,7.183-7.188,13.117L1702,1016.241c-3.13,4.062-5.619,7.5-5.619,14.057v15.5h2.8l0-.022c0-6.558.625-9.061,3.754-13.117l19.113-24.315c4.684-5.929,6.977-8.887,7.468-15.829.672-9.495.972-14.905.972-14.905Z" transform="translate(-1696.377 -977.613)" fill="#b1994d"/>
      </g>
      <g id="leaf-right-fill-reg-9" data-name="leaf-right-fill-reg" transform="translate(31.21 148.373)">
        <path id="Path_243-9" data-name="Path 243" d="M1729.234,977.613c-.628,4.379-2.5,7.183-7.188,13.117L1702,1016.241c-3.13,4.062-5.619,7.5-5.619,14.057v15.5h2.8l0-.022c0-6.558.625-9.061,3.754-13.117l19.113-24.315c4.684-5.929,6.977-8.887,7.468-15.829.672-9.495.972-14.905.972-14.905Z" transform="translate(-1696.377 -977.613)" fill="#b1994d"/>
      </g>
      <g id="leaf-right-fill-reg-10" data-name="leaf-right-fill-reg" transform="translate(31.21 182.467)">
        <path id="Path_243-10" data-name="Path 243" d="M1729.234,977.613c-.628,4.379-2.5,7.183-7.188,13.117L1702,1016.241c-3.13,4.062-5.619,7.5-5.619,14.057v15.5h2.8l0-.022c0-6.558.625-9.061,3.754-13.117l19.113-24.315c4.684-5.929,6.977-8.887,7.468-15.829.672-9.495.972-14.905.972-14.905Z" transform="translate(-1696.377 -977.613)" fill="#b1994d"/>
      </g>
      <g id="leaf-left-fill-reg-6" data-name="leaf-left-fill-reg" transform="translate(0 67.727)">
        <path id="leaf-left-fill-lrg-8" data-name="leaf-left-fill-lrg" d="M1697.628,977.613c.627,4.379,2.5,7.183,7.188,13.117l20.05,25.51c3.129,4.062,5.619,7.5,5.619,14.056v15.5h-2.8l0-.022c0-6.558-.625-9.061-3.754-13.117l-19.113-24.315c-4.684-5.929-6.977-8.886-7.468-15.829-.672-9.5-.971-14.905-.971-14.905Z" transform="translate(-1696.377 -977.613)" fill="#b1994d"/>
      </g>
      <g id="leaf-left-fill-reg-7" data-name="leaf-left-fill-reg" transform="translate(0 101.821)">
        <path id="leaf-left-fill-lrg-9" data-name="leaf-left-fill-lrg" d="M1697.628,977.613c.627,4.379,2.5,7.183,7.188,13.117l20.05,25.51c3.129,4.062,5.619,7.5,5.619,14.056v15.5h-2.8l0-.022c0-6.558-.625-9.061-3.754-13.117l-19.113-24.315c-4.684-5.929-6.977-8.886-7.468-15.829-.672-9.5-.971-14.905-.971-14.905Z" transform="translate(-1696.377 -977.613)" fill="#b1994d"/>
      </g>
      <g id="leaf-left-fill-reg-8" data-name="leaf-left-fill-reg" transform="translate(0 135.915)">
        <path id="leaf-left-fill-lrg-10" data-name="leaf-left-fill-lrg" d="M1697.628,977.613c.627,4.379,2.5,7.183,7.188,13.117l20.05,25.51c3.129,4.062,5.619,7.5,5.619,14.056v15.5h-2.8l0-.022c0-6.558-.625-9.061-3.754-13.117l-19.113-24.315c-4.684-5.929-6.977-8.886-7.468-15.829-.672-9.5-.971-14.905-.971-14.905Z" transform="translate(-1696.377 -977.613)" fill="#b1994d"/>
      </g>
      <g id="leaf-left-fill-reg-9" data-name="leaf-left-fill-reg" transform="translate(0 170.009)">
        <path id="leaf-left-fill-lrg-11" data-name="leaf-left-fill-lrg" d="M1697.628,977.613c.627,4.379,2.5,7.183,7.188,13.117l20.05,25.51c3.129,4.062,5.619,7.5,5.619,14.056v15.5h-2.8l0-.022c0-6.558-.625-9.061-3.754-13.117l-19.113-24.315c-4.684-5.929-6.977-8.886-7.468-15.829-.672-9.5-.971-14.905-.971-14.905Z" transform="translate(-1696.377 -977.613)" fill="#b1994d"/>
      </g>
      <g id="leaf-stem-fill-3" data-name="leaf-stem-fill" transform="translate(31.21 79.89)">
        <rect id="leaf-stem-fill-4" data-name="leaf-stem-fill" width="2.82" height="213.223" fill="#b1994d"/>
      </g>
    </g>
    <g id="Group_2142" data-name="Group 2142" transform="translate(470 1873.605)">
      <g id="leaf-right-fill-lrg-2" data-name="leaf-right-fill-lrg" transform="translate(31.21 0)">
        <path id="Path_242-2" data-name="Path 242" d="M1654.043,956.915c-.627,4.379-2.5,7.183-7.188,13.117l-29.415,37.508c-3.129,4.061-5.619,7.5-5.619,14.057v15.5h2.8l0-.022c0-6.558.625-9.061,3.755-13.117l28.478-36.312c4.684-5.928,6.977-8.887,7.468-15.829.672-9.494.971-14.9.971-14.9Z" transform="translate(-1611.82 -956.915)" fill="#b1994d"/>
      </g>
      <g id="leaf-right-fill-reg-11" data-name="leaf-right-fill-reg" transform="translate(31.21 46.091)">
        <path id="Path_243-11" data-name="Path 243" d="M1729.234,977.613c-.628,4.379-2.5,7.183-7.188,13.117L1702,1016.241c-3.13,4.062-5.619,7.5-5.619,14.057v15.5h2.8l0-.022c0-6.558.625-9.061,3.754-13.117l19.113-24.315c4.684-5.929,6.977-8.887,7.468-15.829.672-9.495.972-14.905.972-14.905Z" transform="translate(-1696.377 -977.613)" fill="#b1994d"/>
      </g>
      <g id="leaf-right-fill-reg-12" data-name="leaf-right-fill-reg" transform="translate(31.21 80.185)">
        <path id="Path_243-12" data-name="Path 243" d="M1729.234,977.613c-.628,4.379-2.5,7.183-7.188,13.117L1702,1016.241c-3.13,4.062-5.619,7.5-5.619,14.057v15.5h2.8l0-.022c0-6.558.625-9.061,3.754-13.117l19.113-24.315c4.684-5.929,6.977-8.887,7.468-15.829.672-9.495.972-14.905.972-14.905Z" transform="translate(-1696.377 -977.613)" fill="#b1994d"/>
      </g>
      <g id="leaf-right-fill-reg-13" data-name="leaf-right-fill-reg" transform="translate(31.21 114.279)">
        <path id="Path_243-13" data-name="Path 243" d="M1729.234,977.613c-.628,4.379-2.5,7.183-7.188,13.117L1702,1016.241c-3.13,4.062-5.619,7.5-5.619,14.057v15.5h2.8l0-.022c0-6.558.625-9.061,3.754-13.117l19.113-24.315c4.684-5.929,6.977-8.887,7.468-15.829.672-9.495.972-14.905.972-14.905Z" transform="translate(-1696.377 -977.613)" fill="#b1994d"/>
      </g>
      <g id="leaf-right-fill-reg-14" data-name="leaf-right-fill-reg" transform="translate(31.21 148.372)">
        <path id="Path_243-14" data-name="Path 243" d="M1729.234,977.613c-.628,4.379-2.5,7.183-7.188,13.117L1702,1016.241c-3.13,4.062-5.619,7.5-5.619,14.057v15.5h2.8l0-.022c0-6.558.625-9.061,3.754-13.117l19.113-24.315c4.684-5.929,6.977-8.887,7.468-15.829.672-9.495.972-14.905.972-14.905Z" transform="translate(-1696.377 -977.613)" fill="#b1994d"/>
      </g>
      <g id="leaf-right-fill-reg-15" data-name="leaf-right-fill-reg" transform="translate(31.21 216.561)">
        <path id="Path_243-15" data-name="Path 243" d="M1729.234,977.613c-.628,4.379-2.5,7.183-7.188,13.117L1702,1016.241c-3.13,4.062-5.619,7.5-5.619,14.057v15.5h2.8l0-.022c0-6.558.625-9.061,3.754-13.117l19.113-24.315c4.684-5.929,6.977-8.887,7.468-15.829.672-9.495.972-14.905.972-14.905Z" transform="translate(-1696.377 -977.613)" fill="#b1994d"/>
      </g>
      <g id="leaf-right-fill-reg-16" data-name="leaf-right-fill-reg" transform="translate(31.21 250.655)">
        <path id="Path_243-16" data-name="Path 243" d="M1729.234,977.613c-.628,4.379-2.5,7.183-7.188,13.117L1702,1016.241c-3.13,4.062-5.619,7.5-5.619,14.057v15.5h2.8l0-.022c0-6.558.625-9.061,3.754-13.117l19.113-24.315c4.684-5.929,6.977-8.887,7.468-15.829.672-9.495.972-14.905.972-14.905Z" transform="translate(-1696.377 -977.613)" fill="#b1994d"/>
      </g>
      <g id="leaf-right-fill-reg-17" data-name="leaf-right-fill-reg" transform="translate(31.21 284.749)">
        <path id="Path_243-17" data-name="Path 243" d="M1729.234,977.613c-.628,4.379-2.5,7.183-7.188,13.117L1702,1016.241c-3.13,4.062-5.619,7.5-5.619,14.057v15.5h2.8l0-.022c0-6.558.625-9.061,3.754-13.117l19.113-24.315c4.684-5.929,6.977-8.887,7.468-15.829.672-9.495.972-14.905.972-14.905Z" transform="translate(-1696.377 -977.613)" fill="#b1994d"/>
      </g>
      <g id="leaf-left-fill-reg-10" data-name="leaf-left-fill-reg" transform="translate(0 67.727)">
        <path id="leaf-left-fill-lrg-12" data-name="leaf-left-fill-lrg" d="M1697.628,977.613c.627,4.379,2.5,7.183,7.188,13.117l20.05,25.51c3.129,4.062,5.619,7.5,5.619,14.056v15.5h-2.8l0-.022c0-6.558-.625-9.061-3.754-13.117l-19.113-24.315c-4.684-5.929-6.977-8.886-7.468-15.829-.672-9.5-.971-14.905-.971-14.905Z" transform="translate(-1696.377 -977.613)" fill="#b1994d"/>
      </g>
      <g id="leaf-left-fill-reg-11" data-name="leaf-left-fill-reg" transform="translate(0 135.915)">
        <path id="leaf-left-fill-lrg-13" data-name="leaf-left-fill-lrg" d="M1697.628,977.613c.627,4.379,2.5,7.183,7.188,13.117l20.05,25.51c3.129,4.062,5.619,7.5,5.619,14.056v15.5h-2.8l0-.022c0-6.558-.625-9.061-3.754-13.117l-19.113-24.315c-4.684-5.929-6.977-8.886-7.468-15.829-.672-9.5-.971-14.905-.971-14.905Z" transform="translate(-1696.377 -977.613)" fill="#b1994d"/>
      </g>
      <g id="leaf-left-fill-reg-12" data-name="leaf-left-fill-reg" transform="translate(0 170.008)">
        <path id="leaf-left-fill-lrg-14" data-name="leaf-left-fill-lrg" d="M1697.628,977.613c.627,4.379,2.5,7.183,7.188,13.117l20.05,25.51c3.129,4.062,5.619,7.5,5.619,14.056v15.5h-2.8l0-.022c0-6.558-.625-9.061-3.754-13.117l-19.113-24.315c-4.684-5.929-6.977-8.886-7.468-15.829-.672-9.5-.971-14.905-.971-14.905Z" transform="translate(-1696.377 -977.613)" fill="#b1994d"/>
      </g>
      <g id="leaf-left-fill-reg-13" data-name="leaf-left-fill-reg" transform="translate(0 204.103)">
        <path id="leaf-left-fill-lrg-15" data-name="leaf-left-fill-lrg" d="M1697.628,977.613c.627,4.379,2.5,7.183,7.188,13.117l20.05,25.51c3.129,4.062,5.619,7.5,5.619,14.056v15.5h-2.8l0-.022c0-6.558-.625-9.061-3.754-13.117l-19.113-24.315c-4.684-5.929-6.977-8.886-7.468-15.829-.672-9.5-.971-14.905-.971-14.905Z" transform="translate(-1696.377 -977.613)" fill="#b1994d"/>
      </g>
      <g id="leaf-left-fill-reg-14" data-name="leaf-left-fill-reg" transform="translate(0 238.197)">
        <path id="leaf-left-fill-lrg-16" data-name="leaf-left-fill-lrg" d="M1697.628,977.613c.627,4.379,2.5,7.183,7.188,13.117l20.05,25.51c3.129,4.062,5.619,7.5,5.619,14.056v15.5h-2.8l0-.022c0-6.558-.625-9.061-3.754-13.117l-19.113-24.315c-4.684-5.929-6.977-8.886-7.468-15.829-.672-9.5-.971-14.905-.971-14.905Z" transform="translate(-1696.377 -977.613)" fill="#b1994d"/>
      </g>
      <g id="leaf-left-fill-reg-15" data-name="leaf-left-fill-reg" transform="translate(0 272.29)">
        <path id="leaf-left-fill-lrg-17" data-name="leaf-left-fill-lrg" d="M1697.628,977.613c.627,4.379,2.5,7.183,7.188,13.117l20.05,25.51c3.129,4.062,5.619,7.5,5.619,14.056v15.5h-2.8l0-.022c0-6.558-.625-9.061-3.754-13.117l-19.113-24.315c-4.684-5.929-6.977-8.886-7.468-15.829-.672-9.5-.971-14.905-.971-14.905Z" transform="translate(-1696.377 -977.613)" fill="#b1994d"/>
      </g>
      <g id="leaf-stem-fill-5" data-name="leaf-stem-fill" transform="translate(31.21 72.959)">
        <rect id="leaf-stem-fill-6" data-name="leaf-stem-fill" width="2.82" height="322.435" fill="#b1994d"/>
      </g>
    </g>
    <g id="Group_2141" data-name="Group 2141" transform="translate(618 1772.959)">
      <g id="leaf-right-fill-lrg-3" data-name="leaf-right-fill-lrg" transform="translate(31.211)">
        <path id="Path_242-3" data-name="Path 242" d="M1654.043,956.915c-.627,4.379-2.5,7.183-7.188,13.117l-29.415,37.508c-3.129,4.061-5.619,7.5-5.619,14.057v15.5h2.8l0-.022c0-6.558.625-9.061,3.755-13.117l28.478-36.312c4.684-5.928,6.977-8.887,7.468-15.829.672-9.494.971-14.9.971-14.9Z" transform="translate(-1611.82 -956.915)" fill="#b1994d"/>
      </g>
      <g id="leaf-right-fill-reg-18" data-name="leaf-right-fill-reg" transform="translate(31.211 47.933)">
        <path id="Path_243-18" data-name="Path 243" d="M1729.234,977.613c-.628,4.379-2.5,7.183-7.188,13.117L1702,1016.241c-3.13,4.062-5.619,7.5-5.619,14.057v15.5h2.8l0-.022c0-6.558.625-9.061,3.754-13.117l19.113-24.315c4.684-5.929,6.977-8.887,7.468-15.829.672-9.495.972-14.905.972-14.905Z" transform="translate(-1696.377 -977.613)" fill="#b1994d"/>
      </g>
      <g id="leaf-right-fill-reg-19" data-name="leaf-right-fill-reg" transform="translate(31.211 80.185)">
        <path id="Path_243-19" data-name="Path 243" d="M1729.234,977.613c-.628,4.379-2.5,7.183-7.188,13.117L1702,1016.241c-3.13,4.062-5.619,7.5-5.619,14.057v15.5h2.8l0-.022c0-6.558.625-9.061,3.754-13.117l19.113-24.315c4.684-5.929,6.977-8.887,7.468-15.829.672-9.495.972-14.905.972-14.905Z" transform="translate(-1696.377 -977.613)" fill="#b1994d"/>
      </g>
      <g id="leaf-right-fill-reg-20" data-name="leaf-right-fill-reg" transform="translate(31.211 112.643)">
        <path id="Path_243-20" data-name="Path 243" d="M1729.234,977.613c-.628,4.379-2.5,7.183-7.188,13.117L1702,1016.241c-3.13,4.062-5.619,7.5-5.619,14.057v15.5h2.8l0-.022c0-6.558.625-9.061,3.754-13.117l19.113-24.315c4.684-5.929,6.977-8.887,7.468-15.829.672-9.495.972-14.905.972-14.905Z" transform="translate(-1696.377 -977.613)" fill="#b1994d"/>
      </g>
      <g id="leaf-right-fill-reg-21" data-name="leaf-right-fill-reg" transform="translate(31.211 180.831)">
        <path id="Path_243-21" data-name="Path 243" d="M1729.234,977.613c-.628,4.379-2.5,7.183-7.188,13.117L1702,1016.241c-3.13,4.062-5.619,7.5-5.619,14.057v15.5h2.8l0-.022c0-6.558.625-9.061,3.754-13.117l19.113-24.315c4.684-5.929,6.977-8.887,7.468-15.829.672-9.495.972-14.905.972-14.905Z" transform="translate(-1696.377 -977.613)" fill="#b1994d"/>
      </g>
      <g id="leaf-right-fill-reg-22" data-name="leaf-right-fill-reg" transform="translate(31.211 214.925)">
        <path id="Path_243-22" data-name="Path 243" d="M1729.234,977.613c-.628,4.379-2.5,7.183-7.188,13.117L1702,1016.241c-3.13,4.062-5.619,7.5-5.619,14.057v15.5h2.8l0-.022c0-6.558.625-9.061,3.754-13.117l19.113-24.315c4.684-5.929,6.977-8.887,7.468-15.829.672-9.495.972-14.905.972-14.905Z" transform="translate(-1696.377 -977.613)" fill="#b1994d"/>
      </g>
      <g id="leaf-right-fill-reg-23" data-name="leaf-right-fill-reg" transform="translate(31.211 249.019)">
        <path id="Path_243-23" data-name="Path 243" d="M1729.234,977.613c-.628,4.379-2.5,7.183-7.188,13.117L1702,1016.241c-3.13,4.062-5.619,7.5-5.619,14.057v15.5h2.8l0-.022c0-6.558.625-9.061,3.754-13.117l19.113-24.315c4.684-5.929,6.977-8.887,7.468-15.829.672-9.495.972-14.905.972-14.905Z" transform="translate(-1696.377 -977.613)" fill="#b1994d"/>
      </g>
      <g id="leaf-right-fill-reg-24" data-name="leaf-right-fill-reg" transform="translate(31.211 283.113)">
        <path id="Path_243-24" data-name="Path 243" d="M1729.234,977.613c-.628,4.379-2.5,7.183-7.188,13.117L1702,1016.241c-3.13,4.062-5.619,7.5-5.619,14.057v15.5h2.8l0-.022c0-6.558.625-9.061,3.754-13.117l19.113-24.315c4.684-5.929,6.977-8.887,7.468-15.829.672-9.495.972-14.905.972-14.905Z" transform="translate(-1696.377 -977.613)" fill="#b1994d"/>
      </g>
      <g id="leaf-right-fill-reg-25" data-name="leaf-right-fill-reg" transform="translate(31.211 351.301)">
        <path id="Path_243-25" data-name="Path 243" d="M1729.234,977.613c-.628,4.379-2.5,7.183-7.188,13.117L1702,1016.241c-3.13,4.062-5.619,7.5-5.619,14.057v15.5h2.8l0-.022c0-6.558.625-9.061,3.754-13.117l19.113-24.315c4.684-5.929,6.977-8.887,7.468-15.829.672-9.495.972-14.905.972-14.905Z" transform="translate(-1696.377 -977.613)" fill="#b1994d"/>
      </g>
      <g id="leaf-right-fill-reg-26" data-name="leaf-right-fill-reg" transform="translate(31.211 385.395)">
        <path id="Path_243-26" data-name="Path 243" d="M1729.234,977.613c-.628,4.379-2.5,7.183-7.188,13.117L1702,1016.241c-3.13,4.062-5.619,7.5-5.619,14.057v15.5h2.8l0-.022c0-6.558.625-9.061,3.754-13.117l19.113-24.315c4.684-5.929,6.977-8.887,7.468-15.829.672-9.495.972-14.905.972-14.905Z" transform="translate(-1696.377 -977.613)" fill="#b1994d"/>
      </g>
      <g id="leaf-left-fill-reg-16" data-name="leaf-left-fill-reg" transform="translate(0 66.092)">
        <path id="leaf-left-fill-lrg-18" data-name="leaf-left-fill-lrg" d="M1697.628,977.613c.627,4.379,2.5,7.183,7.188,13.117l20.05,25.51c3.129,4.062,5.619,7.5,5.619,14.056v15.5h-2.8l0-.022c0-6.558-.625-9.061-3.754-13.117l-19.113-24.315c-4.684-5.929-6.977-8.886-7.468-15.829-.672-9.5-.971-14.905-.971-14.905Z" transform="translate(-1696.377 -977.613)" fill="#b1994d"/>
      </g>
      <g id="leaf-left-fill-reg-17" data-name="leaf-left-fill-reg" transform="translate(0 100.186)">
        <path id="leaf-left-fill-lrg-19" data-name="leaf-left-fill-lrg" d="M1697.628,977.613c.627,4.379,2.5,7.183,7.188,13.117l20.05,25.51c3.129,4.062,5.619,7.5,5.619,14.056v15.5h-2.8l0-.022c0-6.558-.625-9.061-3.754-13.117l-19.113-24.315c-4.684-5.929-6.977-8.886-7.468-15.829-.672-9.5-.971-14.905-.971-14.905Z" transform="translate(-1696.377 -977.613)" fill="#b1994d"/>
      </g>
      <g id="leaf-left-fill-reg-18" data-name="leaf-left-fill-reg" transform="translate(0 134.28)">
        <path id="leaf-left-fill-lrg-20" data-name="leaf-left-fill-lrg" d="M1697.628,977.613c.627,4.379,2.5,7.183,7.188,13.117l20.05,25.51c3.129,4.062,5.619,7.5,5.619,14.056v15.5h-2.8l0-.022c0-6.558-.625-9.061-3.754-13.117l-19.113-24.315c-4.684-5.929-6.977-8.886-7.468-15.829-.672-9.5-.971-14.905-.971-14.905Z" transform="translate(-1696.377 -977.613)" fill="#b1994d"/>
      </g>
      <g id="leaf-left-fill-reg-19" data-name="leaf-left-fill-reg" transform="translate(0 168.374)">
        <path id="leaf-left-fill-lrg-21" data-name="leaf-left-fill-lrg" d="M1697.628,977.613c.627,4.379,2.5,7.183,7.188,13.117l20.05,25.51c3.129,4.062,5.619,7.5,5.619,14.056v15.5h-2.8l0-.022c0-6.558-.625-9.061-3.754-13.117l-19.113-24.315c-4.684-5.929-6.977-8.886-7.468-15.829-.672-9.5-.971-14.905-.971-14.905Z" transform="translate(-1696.377 -977.613)" fill="#b1994d"/>
      </g>
      <g id="leaf-left-fill-reg-20" data-name="leaf-left-fill-reg" transform="translate(0 202.467)">
        <path id="leaf-left-fill-lrg-22" data-name="leaf-left-fill-lrg" d="M1697.628,977.613c.627,4.379,2.5,7.183,7.188,13.117l20.05,25.51c3.129,4.062,5.619,7.5,5.619,14.056v15.5h-2.8l0-.022c0-6.558-.625-9.061-3.754-13.117l-19.113-24.315c-4.684-5.929-6.977-8.886-7.468-15.829-.672-9.5-.971-14.905-.971-14.905Z" transform="translate(-1696.377 -977.613)" fill="#b1994d"/>
      </g>
      <g id="leaf-left-fill-reg-21" data-name="leaf-left-fill-reg" transform="translate(0 270.655)">
        <path id="leaf-left-fill-lrg-23" data-name="leaf-left-fill-lrg" d="M1697.628,977.613c.627,4.379,2.5,7.183,7.188,13.117l20.05,25.51c3.129,4.062,5.619,7.5,5.619,14.056v15.5h-2.8l0-.022c0-6.558-.625-9.061-3.754-13.117l-19.113-24.315c-4.684-5.929-6.977-8.886-7.468-15.829-.672-9.5-.971-14.905-.971-14.905Z" transform="translate(-1696.377 -977.613)" fill="#b1994d"/>
      </g>
      <g id="leaf-left-fill-reg-22" data-name="leaf-left-fill-reg" transform="translate(0 304.749)">
        <path id="leaf-left-fill-lrg-24" data-name="leaf-left-fill-lrg" d="M1697.628,977.613c.627,4.379,2.5,7.183,7.188,13.117l20.05,25.51c3.129,4.062,5.619,7.5,5.619,14.056v15.5h-2.8l0-.022c0-6.558-.625-9.061-3.754-13.117l-19.113-24.315c-4.684-5.929-6.977-8.886-7.468-15.829-.672-9.5-.971-14.905-.971-14.905Z" transform="translate(-1696.377 -977.613)" fill="#b1994d"/>
      </g>
      <g id="leaf-left-fill-reg-23" data-name="leaf-left-fill-reg" transform="translate(0 338.843)">
        <path id="leaf-left-fill-lrg-25" data-name="leaf-left-fill-lrg" d="M1697.628,977.613c.627,4.379,2.5,7.183,7.188,13.117l20.05,25.51c3.129,4.062,5.619,7.5,5.619,14.056v15.5h-2.8l0-.022c0-6.558-.625-9.061-3.754-13.117l-19.113-24.315c-4.684-5.929-6.977-8.886-7.468-15.829-.672-9.5-.971-14.905-.971-14.905Z" transform="translate(-1696.377 -977.613)" fill="#b1994d"/>
      </g>
      <g id="leaf-left-fill-reg-24" data-name="leaf-left-fill-reg" transform="translate(0 372.937)">
        <path id="leaf-left-fill-lrg-26" data-name="leaf-left-fill-lrg" d="M1697.628,977.613c.627,4.379,2.5,7.183,7.188,13.117l20.05,25.51c3.129,4.062,5.619,7.5,5.619,14.056v15.5h-2.8l0-.022c0-6.558-.625-9.061-3.754-13.117l-19.113-24.315c-4.684-5.929-6.977-8.886-7.468-15.829-.672-9.5-.971-14.905-.971-14.905Z" transform="translate(-1696.377 -977.613)" fill="#b1994d"/>
      </g>
      <g id="leaf-stem-fill-7" data-name="leaf-stem-fill" transform="translate(31.211 78.044)">
        <rect id="leaf-stem-fill-8" data-name="leaf-stem-fill" width="2.82" height="417.997" fill="#b1994d"/>
      </g>
    </g>
  </g>
</svg>
