<svg xmlns="http://www.w3.org/2000/svg" width="126.405" height="60" viewBox="0 0 126.405 60">
  <g id="Group_84" data-name="Group 84" transform="translate(-214 -1679)">
    <g id="noun_lemonade_3241720" transform="translate(285.28 1680.305)">
      <path id="Path_99" data-name="Path 99" d="M55.632,6.516a13.454,13.454,0,0,0-19.049,0,.676.676,0,0,0,0,.972l6.86,6.86H25.622L23.916,8.332A8.044,8.044,0,0,0,13.442,2.985L6.1,5.663A2.524,2.524,0,0,0,7.838,10.4l7.337-2.687A2.984,2.984,0,0,1,19.11,9.891l1.266,4.457H16.084a4.809,4.809,0,0,0-4.641,4.623c-.862,12.73,2.944,30.5,8.5,39.9A4.694,4.694,0,0,0,23.98,61.2H35.94a4.706,4.706,0,0,0,4.036-2.33c2.687-4.54,4.778-10.813,6.072-16.115a90.552,90.552,0,0,0,2.385-15.317,66.835,66.835,0,0,0,.073-8.016l6.154,6.154a.694.694,0,0,0,.486.193.679.679,0,0,0,.486-.193A13.49,13.49,0,0,0,55.632,6.516ZM39.829,8.79a9.475,9.475,0,0,1,5.586-2.311v7.9ZM27.557,26.244c-.752.165-1.495.349-2.229.541L22.2,15.724h2.385ZM14.7,6.433,7.361,9.111a1.146,1.146,0,1,1-.78-2.155l7.337-2.678A6.654,6.654,0,0,1,22.6,8.708l1.6,5.641H21.807L20.44,9.515A4.365,4.365,0,0,0,14.7,6.433ZM12.809,19.062a3.445,3.445,0,0,1,3.274-3.338h4.678l3.247,11.455c-3.559,1.055-7.154,2.907-10.85,3.687A68.128,68.128,0,0,1,12.809,19.062ZM38.793,58.17a3.335,3.335,0,0,1-2.852,1.651H23.98a3.309,3.309,0,0,1-2.843-1.651c-.183-.284-.651-1.165-.734-1.33a64.871,64.871,0,0,0,19.123,0C39.26,57.336,39.022,57.776,38.793,58.17Zm1.495-2.834a64.428,64.428,0,0,1-20.645,0,78.7,78.7,0,0,1-6.319-23.085c6.769-1.4,17-8.429,33.724-4.457C46.359,37.415,43.828,47.953,40.287,55.336ZM47.13,26.4a45.175,45.175,0,0,0-18.215-.422L26.007,15.724h17.83a4.054,4.054,0,0,1,3.274,3.338A61.036,61.036,0,0,1,47.13,26.4ZM46.79,14.385V6.479A9.692,9.692,0,0,1,52.385,8.79Zm6.567-4.623a9.535,9.535,0,0,1,2.311,5.595h-7.9Zm-5.512,7.044a.274.274,0,0,0-.037-.073h7.86a9.475,9.475,0,0,1-2.311,5.586ZM55.136,24.1l-.807-.807a10.822,10.822,0,0,0,2.742-7.236v-.028A10.961,10.961,0,0,0,38.857,7.818l-.807-.807A12.1,12.1,0,0,1,55.136,24.1Z" transform="translate(-4.448 -2.502)" fill="#b1994d"/>
    </g>
    <g id="noun_Salad_2945095" transform="translate(214 1679)">
      <g id="Group_61" data-name="Group 61" transform="translate(0 35.917)">
        <g id="Group_59" data-name="Group 59">
          <path id="Path_100" data-name="Path 100" d="M48.512,77.877H20.692A15.053,15.053,0,0,1,5.606,64.313v-.208H2.768a2.8,2.8,0,0,1,0-5.606h63.6a2.8,2.8,0,1,1,0,5.606H63.6v.208A15.053,15.053,0,0,1,48.512,77.877ZM2.768,60.092a1.246,1.246,0,0,0,0,2.491H7.059v.761a7.542,7.542,0,0,0,.069.83A13.485,13.485,0,0,0,20.692,76.285h27.82A13.485,13.485,0,0,0,62.076,64.175a6.506,6.506,0,0,0,.069-.83v-.761h4.291a1.246,1.246,0,1,0,0-2.491Z" transform="translate(0 -58.5)" fill="#b1994d"/>
        </g>
        <g id="Group_60" data-name="Group 60" transform="translate(17.924 17.716)">
          <path id="Path_101" data-name="Path 101" d="M55.658,90.467H29.5a3.618,3.618,0,0,1-3.6-3.6V84.861a.761.761,0,0,1,1.522,0v2.007A2.082,2.082,0,0,0,29.5,88.944H55.727A2.082,2.082,0,0,0,57.8,86.868V84.861a.761.761,0,0,1,1.522,0v2.007A3.633,3.633,0,0,1,55.658,90.467Z" transform="translate(-25.9 -84.1)" fill="#b1994d"/>
        </g>
      </g>
      <g id="Group_82" data-name="Group 82" transform="translate(2.63 0)">
        <g id="Group_63" data-name="Group 63" transform="translate(0 9.066)">
          <g id="Group_62" data-name="Group 62" transform="translate(0 0)">
            <path id="Path_102" data-name="Path 102" d="M10.236,38.108a.416.416,0,0,1-.277-.069,11.17,11.17,0,0,1-5.744-4.567L3.8,32.78l.692-.346a15.352,15.352,0,0,1,5.4-1.522c-.9-1.453-2.422-3.945-3.045-5.26l-.415-.969,1.038-.138a2.275,2.275,0,0,0,1.938-1.938,8.812,8.812,0,0,0,.138-1.522l.069-1.107L11.9,21.153a2.23,2.23,0,0,0,2.768-.623l.692-.83.623.9a31.994,31.994,0,0,1,2.7,5.606,14.877,14.877,0,0,1,4.36-4.014l.692-.346.346.692c2.076,3.668.761,8.028.692,8.235a.766.766,0,0,1-1.453-.484,10.8,10.8,0,0,0-.208-6.228,13.124,13.124,0,0,0-3.945,4.36l-.83,1.592-.554-1.661A41.7,41.7,0,0,0,15.219,22.4a3.686,3.686,0,0,1-3.945.277L11,22.537c0,.138-.069.277-.069.415A3.749,3.749,0,0,1,8.644,26c1.107,2.076,3.253,5.329,3.253,5.4l.761,1.176H11.2a14.522,14.522,0,0,0-5.26,1.038,11.141,11.141,0,0,0,4.429,3.183.823.823,0,0,1,.484,1.038A.865.865,0,0,1,10.236,38.108Z" transform="translate(-3.8 -19.7)" fill="#b1994d"/>
          </g>
        </g>
        <g id="Group_64" data-name="Group 64" transform="translate(20.16 18.408)">
          <path id="Path_103" data-name="Path 103" d="M46.058,48.494a1.283,1.283,0,0,1-.484-.138.864.864,0,0,1-.208-1.107,11.505,11.505,0,0,0,1.869-4.083,10.984,10.984,0,0,0-1.107-7.682L40.107,39.29a3.965,3.965,0,0,1-7.059,3.529.8.8,0,0,1,1.315-.9,2.41,2.41,0,1,0,4.083-2.561l-.415-.692L46.681,33.2l.415.692a12.393,12.393,0,0,1,1.661,9.481,13.066,13.066,0,0,1-2.076,4.706A.837.837,0,0,1,46.058,48.494Z" transform="translate(-32.931 -33.2)" fill="#b1994d"/>
        </g>
        <g id="Group_65" data-name="Group 65" transform="translate(43.219 8.997)">
          <path id="Path_104" data-name="Path 104" d="M83.863,40.638a.761.761,0,0,1-.692-.415l-3.045-5.536a3.684,3.684,0,0,1-2.284.069,4.1,4.1,0,0,1-2.422-1.869A3.772,3.772,0,0,1,75,29.911a3.638,3.638,0,0,1,1.246-1.938l-3.529-6.228a10.744,10.744,0,0,0-4.5,6.3,10.945,10.945,0,0,0,.554,7.4.791.791,0,0,1-1.453.623,12.646,12.646,0,0,1,5.26-16.055l.692-.415,5.052,8.858-.692.415a2.327,2.327,0,0,0-1.107,1.453,2.68,2.68,0,0,0,.208,1.8,2.327,2.327,0,0,0,1.453,1.107,2.68,2.68,0,0,0,1.8-.208l.692-.415,3.806,6.851a.781.781,0,0,1-.277,1.038C84.14,40.638,84,40.638,83.863,40.638Z" transform="translate(-66.252 -19.6)" fill="#b1994d"/>
        </g>
        <g id="Group_70" data-name="Group 70" transform="translate(3.183 27.266)">
          <g id="Group_66" data-name="Group 66">
            <path id="Path_105" data-name="Path 105" d="M26.462,56.242a.768.768,0,0,1-.761-.761,7.889,7.889,0,1,0-15.779,0,.761.761,0,0,1-1.522,0A9.349,9.349,0,0,1,17.811,46a9.451,9.451,0,0,1,9.481,9.481A.785.785,0,0,1,26.462,56.242Z" transform="translate(-8.399 -46)" fill="#b1994d"/>
          </g>
          <g id="Group_67" data-name="Group 67" transform="translate(8.651 3.391)">
            <path id="Path_106" data-name="Path 106" d="M21.661,53.461A.768.768,0,0,1,20.9,52.7V51.661a.761.761,0,0,1,1.522,0V52.7A.768.768,0,0,1,21.661,53.461Z" transform="translate(-20.9 -50.9)" fill="#b1994d"/>
          </g>
          <g id="Group_68" data-name="Group 68" transform="translate(4.914 5.052)">
            <path id="Path_107" data-name="Path 107" d="M16.953,55.515a.786.786,0,0,1-.554-.208l-.692-.692a.783.783,0,1,1,1.107-1.107l.692.692a.842.842,0,0,1,0,1.107A1.321,1.321,0,0,1,16.953,55.515Z" transform="translate(-15.5 -53.3)" fill="#b1994d"/>
          </g>
          <g id="Group_69" data-name="Group 69" transform="translate(11.627 5.052)">
            <path id="Path_108" data-name="Path 108" d="M25.961,55.515a.786.786,0,0,1-.554-.208.842.842,0,0,1,0-1.107l.692-.692a.783.783,0,1,1,1.107,1.107l-.692.692A1.321,1.321,0,0,1,25.961,55.515Z" transform="translate(-25.2 -53.3)" fill="#b1994d"/>
          </g>
        </g>
        <g id="Group_75" data-name="Group 75" transform="translate(37.093 27.266)">
          <g id="Group_71" data-name="Group 71">
            <path id="Path_109" data-name="Path 109" d="M75.462,56.242a.768.768,0,0,1-.761-.761,7.889,7.889,0,1,0-15.779,0,.761.761,0,1,1-1.522,0,9.481,9.481,0,0,1,18.962,0A1.026,1.026,0,0,1,75.462,56.242Z" transform="translate(-57.4 -46)" fill="#b1994d"/>
          </g>
          <g id="Group_72" data-name="Group 72" transform="translate(8.581 3.391)">
            <path id="Path_110" data-name="Path 110" d="M70.561,53.461A.768.768,0,0,1,69.8,52.7V51.661a.761.761,0,1,1,1.522,0V52.7A.768.768,0,0,1,70.561,53.461Z" transform="translate(-69.8 -50.9)" fill="#b1994d"/>
          </g>
          <g id="Group_73" data-name="Group 73" transform="translate(4.844 5.052)">
            <path id="Path_111" data-name="Path 111" d="M65.853,55.515a.786.786,0,0,1-.554-.208l-.692-.692a.783.783,0,0,1,1.107-1.107l.692.692a.842.842,0,0,1,0,1.107A1.321,1.321,0,0,1,65.853,55.515Z" transform="translate(-64.4 -53.3)" fill="#b1994d"/>
          </g>
          <g id="Group_74" data-name="Group 74" transform="translate(11.626 5.052)">
            <path id="Path_112" data-name="Path 112" d="M74.961,55.515a.786.786,0,0,1-.554-.208.842.842,0,0,1,0-1.107l.692-.692a.783.783,0,0,1,1.107,1.107l-.692.692A1.321,1.321,0,0,1,74.961,55.515Z" transform="translate(-74.2 -53.3)" fill="#b1994d"/>
          </g>
        </g>
        <g id="Group_76" data-name="Group 76" transform="translate(10.713 18.879)">
          <path id="Path_113" data-name="Path 113" d="M22.408,40.192a.761.761,0,0,1-.692-.415L19.363,35a.774.774,0,1,1,1.384-.692L23.1,39.084a.786.786,0,0,1-.346,1.038A3,3,0,0,0,22.408,40.192Z" transform="translate(-19.28 -33.88)" fill="#b1994d"/>
        </g>
        <g id="Group_80" data-name="Group 80" transform="translate(24.312 3.547)">
          <g id="Group_77" data-name="Group 77" transform="translate(5.6)">
            <path id="Path_114" data-name="Path 114" d="M52.751,24.58a3.369,3.369,0,0,1-.83-.069,5.462,5.462,0,0,1-4.152-2.491c-1.73-2.837-.346-6.851,3.114-9a8.153,8.153,0,0,1,5.26-1.246,5.462,5.462,0,0,1,4.152,2.491c1.73,2.837.346,6.851-3.114,9A8.056,8.056,0,0,1,52.751,24.58ZM55.243,13.3a6.452,6.452,0,0,0-3.6,1.107c-2.7,1.661-3.875,4.775-2.561,6.851a4.183,4.183,0,0,0,3.045,1.8,7.065,7.065,0,0,0,4.291-1.038c2.7-1.661,3.875-4.775,2.561-6.851a4.183,4.183,0,0,0-3.045-1.8A2.133,2.133,0,0,0,55.243,13.3Z" transform="translate(-47.024 -11.725)" fill="#b1994d"/>
          </g>
          <g id="Group_78" data-name="Group 78" transform="translate(13.12 0.02)">
            <path id="Path_115" data-name="Path 115" d="M62.533,19.606a4.615,4.615,0,0,1-3.945-2.215,4.693,4.693,0,0,1,.277-5.329.789.789,0,1,1,1.246.969,3.137,3.137,0,0,0-.208,3.529,3.074,3.074,0,0,0,3.253,1.384.774.774,0,1,1,.277,1.522A1.9,1.9,0,0,1,62.533,19.606Z" transform="translate(-57.889 -11.753)" fill="#b1994d"/>
          </g>
          <g id="Group_79" data-name="Group 79" transform="translate(0 9.139)">
            <path id="Path_116" data-name="Path 116" d="M39.671,30.584a.727.727,0,0,1-.623-.346.864.864,0,0,1,.208-1.107l6.228-4.083a.8.8,0,0,1,.9,1.315l-6.228,4.083A.746.746,0,0,1,39.671,30.584Z" transform="translate(-38.931 -24.931)" fill="#b1994d"/>
          </g>
        </g>
        <g id="Group_81" data-name="Group 81" transform="translate(22.747)">
          <path id="Path_117" data-name="Path 117" d="M38.628,22.033a.721.721,0,0,1-.692-.484c-.069-.069-3.945-8.72,2.215-14.533l.415-.415.484.346a14.241,14.241,0,0,1,5.675,6.782.791.791,0,0,1-1.453.623,14.118,14.118,0,0,0-4.5-5.675c-4.637,4.983-1.522,11.972-1.384,12.249a.758.758,0,0,1-.415,1.038A.624.624,0,0,1,38.628,22.033Z" transform="translate(-36.67 -6.6)" fill="#b1994d"/>
        </g>
      </g>
    </g>
  </g>
</svg>
