<svg xmlns="http://www.w3.org/2000/svg" width="608" height="341.396" viewBox="0 0 608 341.396">
  <g id="Group_1901" data-name="Group 1901" transform="translate(-584 -264.604)">
    <g id="Group_1898" data-name="Group 1898" transform="translate(14 46.287)">
      <g id="leaf-left-line-reg" transform="translate(1025.801 261.724)">
        <path id="leaf-left-line-reg-2" data-name="leaf-left-line-reg" d="M1911.867,974.765c.824,5.749,3.287,9.43,9.437,17.221l27.964,35.659c4.108,5.332,7.377,9.843,7.377,18.454v25.185c0-8.61-.82-11.9-4.929-17.221l-28.77-36.781c-6.15-7.784-9.159-11.667-9.8-20.781Z" transform="translate(-1911.867 -974.765)" fill="none" stroke="#7f6d35" stroke-miterlimit="10" stroke-width="2"/>
      </g>
      <g id="leaf-left-line-reg-3" data-name="leaf-left-line-reg" transform="translate(1025.801 309.984)">
        <path id="leaf-left-line-reg-4" data-name="leaf-left-line-reg" d="M1911.867,974.765c.824,5.749,3.287,9.43,9.437,17.221l27.964,35.659c4.108,5.332,7.377,9.843,7.377,18.454v25.185c0-8.61-.82-11.9-4.929-17.221l-28.77-36.781c-6.15-7.784-9.159-11.667-9.8-20.781Z" transform="translate(-1911.867 -974.765)" fill="none" stroke="#7f6d35" stroke-miterlimit="10" stroke-width="2"/>
      </g>
      <g id="leaf-left-line-reg-5" data-name="leaf-left-line-reg" transform="translate(1025.801 358.243)">
        <path id="leaf-left-line-reg-6" data-name="leaf-left-line-reg" d="M1911.867,974.765c.824,5.749,3.287,9.43,9.437,17.221l27.964,35.659c4.108,5.332,7.377,9.843,7.377,18.454v25.185c0-8.61-.82-11.9-4.929-17.221l-28.77-36.781c-6.15-7.784-9.159-11.667-9.8-20.781Z" transform="translate(-1911.867 -974.765)" fill="none" stroke="#7f6d35" stroke-miterlimit="10" stroke-width="2"/>
      </g>
      <g id="leaf-right-line-lrg" transform="translate(1070.579 218.459)">
        <path id="Path_244" data-name="Path 244" d="M1880.3,954.066c-.824,5.75-3.288,9.43-9.437,17.221l-40.26,51.41c-4.108,5.332-7.378,9.843-7.378,18.454v25.185c0-8.61.821-11.9,4.929-17.221l41.066-52.532c6.15-7.783,9.159-11.667,9.8-20.781Z" transform="translate(-1823.221 -954.066)" fill="none" stroke="#7f6d35" stroke-miterlimit="10" stroke-width="2"/>
      </g>
      <g id="leaf-right-line-reg" transform="translate(1070.579 280.186)">
        <path id="Path_245" data-name="Path 245" d="M1956.645,974.765c-.824,5.749-3.287,9.43-9.437,17.221l-27.964,35.659c-4.108,5.332-7.377,9.843-7.377,18.454v25.185c0-8.61.82-11.9,4.929-17.221l28.77-36.781c6.15-7.784,9.159-11.667,9.8-20.781Z" transform="translate(-1911.867 -974.765)" fill="none" stroke="#7f6d35" stroke-miterlimit="10" stroke-width="2"/>
      </g>
      <g id="leaf-right-line-reg-2" data-name="leaf-right-line-reg" transform="translate(1070.579 328.446)">
        <path id="Path_245-2" data-name="Path 245" d="M1956.645,974.765c-.824,5.749-3.287,9.43-9.437,17.221l-27.964,35.659c-4.108,5.332-7.377,9.843-7.377,18.454v25.185c0-8.61.82-11.9,4.929-17.221l28.77-36.781c6.15-7.784,9.159-11.667,9.8-20.781Z" transform="translate(-1911.867 -974.765)" fill="none" stroke="#7f6d35" stroke-miterlimit="10" stroke-width="2"/>
      </g>
      <line id="Line_70" data-name="Line 70" y2="58.592" transform="translate(1070.579 453.621)" fill="none" stroke="#7f6d35" stroke-width="2"/>
    </g>
    <g id="Group_1900" data-name="Group 1900" transform="translate(105.52 219.048)">
      <g id="leaf-left-line-reg-7" data-name="leaf-left-line-reg" transform="translate(1025.801 243.128)">
        <path id="leaf-left-line-reg-8" data-name="leaf-left-line-reg" d="M1911.867,974.765c.47,3.278,1.874,5.377,5.381,9.819l15.945,20.332c2.342,3.04,4.206,5.612,4.206,10.522v14.36c0-4.909-.468-6.782-2.81-9.819l-16.4-20.972c-3.506-4.438-5.222-6.652-5.59-11.849Z" transform="translate(-1911.867 -974.765)" fill="none" stroke="#434134" stroke-miterlimit="10" stroke-width="2"/>
      </g>
      <g id="leaf-left-line-reg-9" data-name="leaf-left-line-reg" transform="translate(1025.801 298.161)">
        <path id="leaf-left-line-reg-10" data-name="leaf-left-line-reg" d="M1911.867,974.765c.47,3.278,1.874,5.377,5.381,9.819l15.945,20.332c2.342,3.04,4.206,5.612,4.206,10.522v14.36c0-4.909-.468-6.782-2.81-9.819l-16.4-20.972c-3.506-4.438-5.222-6.652-5.59-11.849Z" transform="translate(-1911.867 -974.765)" fill="none" stroke="#434134" stroke-miterlimit="10" stroke-width="2"/>
      </g>
      <g id="leaf-right-line-reg-3" data-name="leaf-right-line-reg" transform="translate(1051.332 253.655)">
        <path id="Path_245-3" data-name="Path 245" d="M1937.4,974.765c-.47,3.278-1.874,5.377-5.381,9.819l-15.945,20.332c-2.342,3.04-4.206,5.612-4.206,10.522v14.36c0-4.909.468-6.782,2.81-9.819l16.4-20.972c3.507-4.438,5.223-6.652,5.59-11.849Z" transform="translate(-1911.867 -974.765)" fill="none" stroke="#434134" stroke-miterlimit="10" stroke-width="2"/>
      </g>
      <g id="leaf-right-line-reg-4" data-name="leaf-right-line-reg" transform="translate(1051.332 281.172)">
        <path id="Path_245-4" data-name="Path 245" d="M1937.4,974.765c-.47,3.278-1.874,5.377-5.381,9.819l-15.945,20.332c-2.342,3.04-4.206,5.612-4.206,10.522v14.36c0-4.909.468-6.782,2.81-9.819l16.4-20.972c3.507-4.438,5.223-6.652,5.59-11.849Z" transform="translate(-1911.867 -974.765)" fill="none" stroke="#434134" stroke-miterlimit="10" stroke-width="2"/>
      </g>
      <line id="Line_70-2" data-name="Line 70" y2="77.5" transform="translate(1051.277 308.452)" fill="none" stroke="#434134" stroke-width="2"/>
    </g>
    <path id="Path_250" data-name="Path 250" d="M0,0A46.974,46.974,0,0,0,46.973,46.974" transform="translate(1037.674 605) rotate(-90)" fill="none" stroke="#7f6d35" stroke-miterlimit="10" stroke-width="2"/>
    <line id="Line_71" data-name="Line 71" x2="454" transform="translate(584 605)" fill="none" stroke="#7f6d35" stroke-width="2"/>
    <path id="Path_4369" data-name="Path 4369" d="M0,46.973A46.973,46.973,0,0,1,46.974,0" transform="translate(1084.646 605) rotate(-90)" fill="none" stroke="#7f6d35" stroke-miterlimit="10" stroke-width="2"/>
    <line id="Line_72" data-name="Line 72" x2="60" transform="translate(1132 605)" fill="none" stroke="#7f6d35" stroke-width="2"/>
  </g>
</svg>
