<svg xmlns="http://www.w3.org/2000/svg" width="17.5" height="17.5" viewBox="0 0 17.5 17.5">
  <path id="Path_3" data-name="Path 3" d="M3.906,0H.273V-11.68H3.906Zm-1.8-13.281a2.028,2.028,0,0,1-1.484-.625A2.028,2.028,0,0,1,0-15.391a2.028,2.028,0,0,1,.625-1.484A2.028,2.028,0,0,1,2.109-17.5a2.028,2.028,0,0,1,1.484.625,2.028,2.028,0,0,1,.625,1.484,2.028,2.028,0,0,1-.625,1.484A2.028,2.028,0,0,1,2.109-13.281ZM17.5,0H13.867V-5.7a6.31,6.31,0,0,0-.234-2.031,1.644,1.644,0,0,0-1.68-1.055,1.83,1.83,0,0,0-1.758.938A4.361,4.361,0,0,0,9.8-5.781V0H6.211V-11.68H9.688v1.6h.039a3.122,3.122,0,0,1,1.25-1.289,3.851,3.851,0,0,1,2.188-.625,3.877,3.877,0,0,1,3.555,1.6A7.9,7.9,0,0,1,17.5-6.406Z" transform="translate(0 17.5)" fill="#fff"/>
</svg>
