<svg xmlns="http://www.w3.org/2000/svg" width="120" height="136.527" viewBox="0 0 120 136.527">
  <g id="Group_1896" data-name="Group 1896" transform="translate(-237.711 -107.667)">
    <g id="Group_1894" data-name="Group 1894" transform="translate(263.016 181.976)">
      <path id="Path_4361" data-name="Path 4361" d="M596.716,738.135v.548a1.377,1.377,0,0,1,.927,1.349v13.546h4.783V738.135Z" transform="translate(-579.454 -737.69)" fill="#fff"/>
      <path id="Path_4362" data-name="Path 4362" d="M824.88,745.206a3.154,3.154,0,0,0,2.366-3.083c0-2.466-1.849-3.988-6.176-3.988h-9.612v.548a1.377,1.377,0,0,1,.927,1.349v13.546h9.949c4.071,0,5.727-2.017,5.727-4.5A3.979,3.979,0,0,0,824.88,745.206Zm-5.068-5.53a2.448,2.448,0,1,1,0,4.893h-2.644v-4.893Zm.1,12.361h-2.742v-5.926h2.742a2.977,2.977,0,1,1,0,5.926Z" transform="translate(-768.735 -737.69)" fill="#fff"/>
      <path id="Path_4363" data-name="Path 4363" d="M464.538,735.344a21.987,21.987,0,0,0-5.531-.958c-2.505,0-7.4.622-7.4,4.239,0,5.519,10.569,5.479,10.494,8.587-.035,1.432-2.611,1.7-4.255,1.521a5.473,5.473,0,0,1-5.067-3.968l-.543-.076-1.1,4.518a18.05,18.05,0,0,0,7.126,1.512c5.662,0,8.72-1.856,8.72-4.949,0-5.7-10.754-5.167-10.754-8.212,0-2.233,5.6-1.927,8.009,2.154h.548Z" transform="translate(-451.132 -734.385)" fill="#fff"/>
      <path id="Path_4364" data-name="Path 4364" d="M681.749,735.344a21.986,21.986,0,0,0-5.531-.958c-2.505,0-7.4.622-7.4,4.239,0,5.519,10.569,5.479,10.494,8.587-.035,1.432-2.611,1.7-4.255,1.521a5.474,5.474,0,0,1-5.067-3.968l-.543-.076-1.1,4.518a18.05,18.05,0,0,0,7.126,1.512c5.662,0,8.72-1.856,8.72-4.949,0-5.7-10.754-5.167-10.754-8.212,0-2.233,5.6-1.927,8.009,2.154h.548Z" transform="translate(-642.589 -734.385)" fill="#fff"/>
      <path id="Path_4365" data-name="Path 4365" d="M1127.192,738.135v.548a1.377,1.377,0,0,1,.927,1.349V749.2l-7.357-11.068h-6.13v.548a1.377,1.377,0,0,1,.927,1.349v13.546h2.538V742.3l7.5,11.276h5.064V738.135Z" transform="translate(-1035.962 -737.69)" fill="#fff"/>
      <path id="Path_4366" data-name="Path 4366" d="M970.772,751.173l-5.307-13.038h-4.146l-7.04,15.443h2.789L958.7,750h6.719l1.457,3.581h5.718v-.548S971.493,752.946,970.772,751.173Zm-11.37-2.717,2.847-6.245,2.542,6.245Z" transform="translate(-894.621 -737.69)" fill="#fff"/>
    </g>
    <g id="Group_1895" data-name="Group 1895" transform="translate(237.711 107.667)">
      <path id="Path_4367" data-name="Path 4367" d="M269.947,107.667c-.275,1.92-1.1,3.15-3.152,5.752l-12.9,16.446c-1.372,1.781-2.464,3.287-2.464,6.163v18.691a20.724,20.724,0,0,0-1.237-1.732l-8.759-11.149c-2.054-2.6-2.876-3.831-3.152-5.751h-.548s.131,2.372.426,6.536c.216,3.044,1.221,4.341,3.275,6.941l8.349,10.625c1.372,1.779,1.646,2.876,1.646,5.752v4.231a20.686,20.686,0,0,0-1.237-1.732l-8.759-11.149c-2.054-2.6-2.876-3.831-3.152-5.751h-.548s.131,2.372.426,6.536c.216,3.044,1.221,4.341,3.275,6.94l8.349,10.625c1.372,1.779,1.646,2.876,1.646,5.751v4.248a20.7,20.7,0,0,0-1.237-1.732l-8.785-11.182c-2.054-2.6-2.876-3.831-3.152-5.751h-.548s.131,2.372.426,6.536c.215,3.044,1.22,4.341,3.274,6.94l8.374,10.658c1.372,1.779,1.646,2.876,1.646,5.752V219.75a7.2,7.2,0,0,1-1.213,4.754l.388.387c1.233-1.441,2.052-2.062,2.052-5.758V189.12c0-2.876.274-3.973,1.646-5.751l8.348-10.625c2.054-2.6,3.059-3.9,3.275-6.94.295-4.163.426-6.536.426-6.536h-.548c-.275,1.92-1.1,3.15-3.152,5.751L253.9,176.168a20.749,20.749,0,0,0-1.237,1.732v-4.215c0-2.876.274-3.973,1.646-5.751l8.348-10.625c2.054-2.6,3.059-3.9,3.275-6.94.295-4.164.426-6.536.426-6.536h-.548c-.275,1.92-1.1,3.15-3.152,5.751L253.9,160.734a20.749,20.749,0,0,0-1.237,1.732v-4.215c0-2.876.274-3.973,1.646-5.751l8.374-10.658c2.054-2.6,3.059-3.9,3.274-6.94.295-4.163.426-6.536.426-6.536h-.548c-.275,1.92-1.1,3.15-3.152,5.751L253.9,145.3a20.732,20.732,0,0,0-1.237,1.732v-4.215c0-2.876.274-3.973,1.646-5.751L266.8,121.143c2.054-2.6,3.059-3.9,3.275-6.941.295-4.163.426-6.535.426-6.535Z" transform="translate(-237.711 -107.667)" fill="#fff"/>
      <path id="Path_4368" data-name="Path 4368" d="M333.256,1101.171c-.637-.717-.631-.722-.631-.722a2.294,2.294,0,0,1-.678-2.668l-.425-.347-2.876,3.661c-1.24,1.578-1.043,2.662-.037,3.8s1.432,1.573,1.432,1.573a.879.879,0,0,1,0,1.326h0l-1.569,2c-1,1.275-.8,2.309-.117,3.075.637.717.631.722.631.722a2.294,2.294,0,0,1,.678,2.668l.425.347,2.876-3.661c1.24-1.578,1.043-2.662.037-3.8s-1.431-1.573-1.431-1.573l-.03-.035h0a.842.842,0,0,1,0-1.259h0l1.6-2.031C334.141,1102.97,333.937,1101.937,333.256,1101.171Z" transform="translate(-317.105 -980.079)" fill="#fff"/>
    </g>
  </g>
</svg>
