<svg id="logo-sisban-logotype-white" xmlns="http://www.w3.org/2000/svg" width="120" height="20.697" viewBox="0 0 120 20.697">
  <path id="Path_3" data-name="Path 3" d="M490.005,618.276v.695a1.745,1.745,0,0,1,1.175,1.709v17.166h6.061v-19.57Z" transform="translate(-468.131 -617.713)" fill="#fff"/>
  <path id="Path_4" data-name="Path 4" d="M721.756,627.237a4,4,0,0,0,3-3.908c0-3.125-2.343-5.053-7.827-5.053h-12.18v.695a1.745,1.745,0,0,1,1.175,1.709v17.166H718.53c5.159,0,7.257-2.556,7.257-5.708A5.042,5.042,0,0,0,721.756,627.237Zm-6.422-7.008a3.1,3.1,0,1,1,0,6.2h-3.35v-6.2Zm.125,15.664h-3.475v-7.51h3.475c2.825,0,4.129,1.821,4.129,3.755S718.283,635.893,715.458,635.893Z" transform="translate(-650.607 -617.713)" fill="#fff"/>
  <path id="Path_5" data-name="Path 5" d="M361.41,615.741a27.866,27.866,0,0,0-7.01-1.215c-3.175,0-9.381.789-9.381,5.372,0,6.994,13.393,6.943,13.3,10.882-.044,1.814-3.309,2.156-5.392,1.928-1.889-.208-5.441-1.127-6.421-5.029l-.689-.1-1.395,5.725a22.876,22.876,0,0,0,9.03,1.916c7.175,0,11.051-2.352,11.051-6.272,0-7.229-13.628-6.548-13.628-10.406,0-2.83,7.091-2.442,10.15,2.73h.695Z" transform="translate(-344.421 -614.526)" fill="#fff"/>
  <path id="Path_6" data-name="Path 6" d="M578.62,615.741a27.864,27.864,0,0,0-7.01-1.215c-3.175,0-9.381.789-9.381,5.372,0,6.994,13.393,6.943,13.3,10.882-.044,1.814-3.309,2.156-5.391,1.928-1.889-.208-5.441-1.127-6.422-5.029l-.688-.1-1.395,5.725a22.875,22.875,0,0,0,9.031,1.916c7.175,0,11.05-2.352,11.05-6.272,0-7.229-13.628-6.548-13.628-10.406,0-2.83,7.09-2.442,10.149,2.73h.695Z" transform="translate(-528.996 -614.526)" fill="#fff"/>
  <path id="Path_7" data-name="Path 7" d="M1023.837,618.276v.695a1.745,1.745,0,0,1,1.175,1.709V632.3l-9.323-14.026h-7.768v.695a1.745,1.745,0,0,1,1.175,1.709v17.166h3.216v-14.29l9.5,14.29h6.418v-19.57Z" transform="translate(-908.229 -617.713)" fill="#fff"/>
  <path id="Path_8" data-name="Path 8" d="M868.47,634.8l-6.726-16.522H856.49l-8.922,19.57H851.1l2.069-4.538h8.514l1.847,4.538h7.246v-.7S869.384,637.045,868.47,634.8Zm-14.408-3.443,3.608-7.914,3.221,7.914Z" transform="translate(-771.969 -617.713)" fill="#fff"/>
</svg>
