<svg xmlns="http://www.w3.org/2000/svg" width="1193" height="433.683" viewBox="0 0 1193 433.683">
  <g id="Group_2250" data-name="Group 2250" transform="translate(-172 -1301.817)">
    <g id="Group_1898" data-name="Group 1898" transform="translate(-6.727 1083.5)">
      <g id="leaf-left-line-reg" transform="translate(1025.801 275.316)">
        <path id="leaf-left-line-reg-2" data-name="leaf-left-line-reg" d="M1911.867,974.765c1.083,7.555,4.32,12.393,12.4,22.631l36.749,46.862c5.4,7.007,9.7,12.935,9.7,24.252v33.1c0-11.315-1.078-15.632-6.477-22.631l-37.809-48.337c-8.082-10.229-12.037-15.332-12.885-27.31Z" transform="translate(-1911.867 -974.765)" fill="none" stroke="#7f6d35" stroke-miterlimit="10" stroke-width="2"/>
      </g>
      <g id="leaf-left-line-reg-3" data-name="leaf-left-line-reg" transform="translate(1025.801 338.737)">
        <path id="leaf-left-line-reg-4" data-name="leaf-left-line-reg" d="M1911.867,974.765c1.083,7.555,4.32,12.393,12.4,22.631l36.749,46.862c5.4,7.007,9.7,12.935,9.7,24.252v33.1c0-11.315-1.078-15.632-6.477-22.631l-37.809-48.337c-8.082-10.229-12.037-15.332-12.885-27.31Z" transform="translate(-1911.867 -974.765)" fill="none" stroke="#7f6d35" stroke-miterlimit="10" stroke-width="2"/>
      </g>
      <g id="leaf-left-line-reg-5" data-name="leaf-left-line-reg" transform="translate(1025.801 402.158)">
        <path id="leaf-left-line-reg-6" data-name="leaf-left-line-reg" d="M1911.867,974.765c1.083,7.555,4.32,12.393,12.4,22.631l36.749,46.862c5.4,7.007,9.7,12.935,9.7,24.252v33.1c0-11.315-1.078-15.632-6.477-22.631l-37.809-48.337c-8.082-10.229-12.037-15.332-12.885-27.31Z" transform="translate(-1911.867 -974.765)" fill="none" stroke="#7f6d35" stroke-miterlimit="10" stroke-width="2"/>
      </g>
      <g id="leaf-right-line-lrg" transform="translate(1084.646 218.459)">
        <path id="Path_244" data-name="Path 244" d="M1898.227,954.066c-1.083,7.556-4.321,12.393-12.4,22.631l-52.908,67.561c-5.4,7.007-9.7,12.935-9.7,24.252v33.1c0-11.315,1.079-15.632,6.478-22.631l53.968-69.036c8.082-10.228,12.037-15.332,12.885-27.31Z" transform="translate(-1823.221 -954.066)" fill="none" stroke="#7f6d35" stroke-miterlimit="10" stroke-width="2"/>
      </g>
      <g id="leaf-right-line-reg" transform="translate(1084.646 299.579)">
        <path id="Path_245" data-name="Path 245" d="M1970.713,974.765c-1.083,7.555-4.32,12.393-12.4,22.631l-36.749,46.862c-5.4,7.007-9.7,12.935-9.7,24.252v33.1c0-11.315,1.078-15.632,6.477-22.631l37.809-48.337c8.082-10.229,12.037-15.332,12.885-27.31Z" transform="translate(-1911.867 -974.765)" fill="none" stroke="#7f6d35" stroke-miterlimit="10" stroke-width="2"/>
      </g>
      <g id="leaf-right-line-reg-2" data-name="leaf-right-line-reg" transform="translate(1084.646 363)">
        <path id="Path_245-2" data-name="Path 245" d="M1970.713,974.765c-1.083,7.555-4.32,12.393-12.4,22.631l-36.749,46.862c-5.4,7.007-9.7,12.935-9.7,24.252v33.1c0-11.315,1.078-15.632,6.477-22.631l37.809-48.337c8.082-10.229,12.037-15.332,12.885-27.31Z" transform="translate(-1911.867 -974.765)" fill="none" stroke="#7f6d35" stroke-miterlimit="10" stroke-width="2"/>
      </g>
      <line id="Line_70" data-name="Line 70" y2="77" transform="translate(1084.646 527.5)" fill="none" stroke="#7f6d35" stroke-width="2"/>
    </g>
    <g id="Group_1899" data-name="Group 1899" transform="translate(143.199 1289.707)">
      <g id="leaf-left-line-reg-7" data-name="leaf-left-line-reg" transform="translate(1025.801 251.794)">
        <path id="leaf-left-line-reg-8" data-name="leaf-left-line-reg" d="M1911.867,974.765c.635,4.429,2.533,7.266,7.271,13.268l21.546,27.475c3.165,4.108,5.684,7.584,5.684,14.219v19.4c0-6.634-.632-9.165-3.8-13.269l-22.167-28.34c-4.738-6-7.057-8.989-7.554-16.012Z" transform="translate(-1911.867 -974.765)" fill="none" stroke="#434134" stroke-miterlimit="10" stroke-width="2"/>
      </g>
      <g id="leaf-left-line-reg-9" data-name="leaf-left-line-reg" transform="translate(1025.801 288.978)">
        <path id="leaf-left-line-reg-10" data-name="leaf-left-line-reg" d="M1911.867,974.765c.635,4.429,2.533,7.266,7.271,13.268l21.546,27.475c3.165,4.108,5.684,7.584,5.684,14.219v19.4c0-6.634-.632-9.165-3.8-13.269l-22.167-28.34c-4.738-6-7.057-8.989-7.554-16.012Z" transform="translate(-1911.867 -974.765)" fill="none" stroke="#434134" stroke-miterlimit="10" stroke-width="2"/>
      </g>
      <g id="leaf-right-line-lrg-2" data-name="leaf-right-line-lrg" transform="translate(1060.302 218.459)">
        <path id="Path_244-2" data-name="Path 244" d="M1867.2,954.066c-.635,4.43-2.533,7.266-7.271,13.269l-31.02,39.611c-3.166,4.108-5.685,7.584-5.685,14.219v19.4c0-6.634.633-9.165,3.8-13.269l31.641-40.475c4.738-6,7.057-8.989,7.554-16.012Z" transform="translate(-1823.221 -954.066)" fill="none" stroke="#434134" stroke-miterlimit="10" stroke-width="2"/>
      </g>
      <g id="leaf-right-line-reg-3" data-name="leaf-right-line-reg" transform="translate(1060.302 303.203)">
        <path id="Path_245-3" data-name="Path 245" d="M1946.368,974.765c-.635,4.429-2.533,7.266-7.271,13.268l-21.546,27.475c-3.165,4.108-5.684,7.584-5.684,14.219v19.4c0-6.634.632-9.165,3.8-13.269l22.167-28.34c4.739-6,7.057-8.989,7.554-16.012Z" transform="translate(-1911.867 -974.765)" fill="none" stroke="#434134" stroke-miterlimit="10" stroke-width="2"/>
      </g>
      <line id="Line_70-2" data-name="Line 70" y2="124" transform="translate(1060.277 320.793)" fill="none" stroke="#434134" stroke-width="2"/>
    </g>
    <g id="Group_1900" data-name="Group 1900" transform="translate(-95.333 1348.548)">
      <g id="leaf-left-line-reg-11" data-name="leaf-left-line-reg" transform="translate(1025.801 243.128)">
        <path id="leaf-left-line-reg-12" data-name="leaf-left-line-reg" d="M1911.867,974.765c.47,3.278,1.874,5.377,5.381,9.819l15.945,20.332c2.342,3.04,4.206,5.612,4.206,10.522v14.36c0-4.909-.468-6.782-2.81-9.819l-16.4-20.972c-3.506-4.438-5.222-6.652-5.59-11.849Z" transform="translate(-1911.867 -974.765)" fill="none" stroke="#434134" stroke-miterlimit="10" stroke-width="2"/>
      </g>
      <g id="leaf-left-line-reg-13" data-name="leaf-left-line-reg" transform="translate(1025.801 298.161)">
        <path id="leaf-left-line-reg-14" data-name="leaf-left-line-reg" d="M1911.867,974.765c.47,3.278,1.874,5.377,5.381,9.819l15.945,20.332c2.342,3.04,4.206,5.612,4.206,10.522v14.36c0-4.909-.468-6.782-2.81-9.819l-16.4-20.972c-3.506-4.438-5.222-6.652-5.59-11.849Z" transform="translate(-1911.867 -974.765)" fill="none" stroke="#434134" stroke-miterlimit="10" stroke-width="2"/>
      </g>
      <g id="leaf-right-line-reg-4" data-name="leaf-right-line-reg" transform="translate(1051.332 253.655)">
        <path id="Path_245-4" data-name="Path 245" d="M1937.4,974.765c-.47,3.278-1.874,5.377-5.381,9.819l-15.945,20.332c-2.342,3.04-4.206,5.612-4.206,10.522v14.36c0-4.909.468-6.782,2.81-9.819l16.4-20.972c3.507-4.438,5.223-6.652,5.59-11.849Z" transform="translate(-1911.867 -974.765)" fill="none" stroke="#434134" stroke-miterlimit="10" stroke-width="2"/>
      </g>
      <g id="leaf-right-line-reg-5" data-name="leaf-right-line-reg" transform="translate(1051.332 281.172)">
        <path id="Path_245-5" data-name="Path 245" d="M1937.4,974.765c-.47,3.278-1.874,5.377-5.381,9.819l-15.945,20.332c-2.342,3.04-4.206,5.612-4.206,10.522v14.36c0-4.909.468-6.782,2.81-9.819l16.4-20.972c3.507-4.438,5.223-6.652,5.59-11.849Z" transform="translate(-1911.867 -974.765)" fill="none" stroke="#434134" stroke-miterlimit="10" stroke-width="2"/>
      </g>
      <line id="Line_70-3" data-name="Line 70" y2="77.5" transform="translate(1051.277 308.452)" fill="none" stroke="#434134" stroke-width="2"/>
    </g>
    <path id="Path_250" data-ignore="true"  data-name="Path 250" d="M0,0A46.974,46.974,0,0,0,46.973,46.974" transform="translate(1030.946 1734.5) rotate(-90)" fill="none" stroke="#7f6d35" stroke-miterlimit="10" stroke-width="2"/>
    <line id="Line_71" data-ignore="true"  data-name="Line 71" x2="866.5" transform="translate(172 1734.5)" fill="none" stroke="#7f6d35" stroke-width="2"/>
    <path id="Path_4369" data-ignore="true"  data-name="Path 4369" d="M0,46.973A46.973,46.973,0,0,1,46.974,0" transform="translate(1077.92 1734.5) rotate(-90)" fill="none" stroke="#7f6d35" stroke-miterlimit="10" stroke-width="2"/>
    <line id="Line_72" data-ignore="true"  data-name="Line 72" x2="240.5" transform="translate(1124.5 1734.5)" fill="none" stroke="#7f6d35" stroke-width="2"/>
  </g>
</svg>
