<svg xmlns="http://www.w3.org/2000/svg" width="227.728" height="424.177" viewBox="0 0 227.728 424.177">
  <g id="Group_2249" data-name="Group 2249" transform="translate(-302 -1851.823)">
    <g id="Group_2127" data-name="Group 2127" transform="translate(302 1851.823)">
      <g id="leaf-right-fill-lrg" transform="translate(31.647 0)">
        <path id="Path_242" data-name="Path 242" d="M1654.633,956.915c-.636,4.44-2.539,7.283-7.289,13.3l-29.826,38.032c-3.173,4.118-5.7,7.6-5.7,14.253v15.72h2.837l0-.022c0-6.65.635-9.188,3.807-13.3l28.876-36.819c4.75-6.011,7.074-9.011,7.573-16.051.682-9.627.985-15.113.985-15.113Z" transform="translate(-1611.82 -956.915)" fill="#b1994d"/>
      </g>
      <g id="leaf-right-fill-reg" transform="translate(31.647 46.735)">
        <path id="Path_243" data-name="Path 243" d="M1729.693,977.613c-.636,4.44-2.539,7.283-7.289,13.3l-20.33,25.867c-3.173,4.118-5.7,7.6-5.7,14.253v15.72h2.838l0-.022c0-6.65.634-9.187,3.807-13.3l19.38-24.654c4.749-6.012,7.074-9.011,7.572-16.05.682-9.628.985-15.113.985-15.113Z" transform="translate(-1696.377 -977.613)" fill="#b1994d"/>
      </g>
      <g id="leaf-right-fill-reg-2" data-name="leaf-right-fill-reg" transform="translate(31.647 115.876)">
        <path id="Path_243-2" data-name="Path 243" d="M1729.693,977.613c-.636,4.44-2.539,7.283-7.289,13.3l-20.33,25.867c-3.173,4.118-5.7,7.6-5.7,14.253v15.72h2.838l0-.022c0-6.65.634-9.187,3.807-13.3l19.38-24.654c4.749-6.012,7.074-9.011,7.572-16.05.682-9.628.985-15.113.985-15.113Z" transform="translate(-1696.377 -977.613)" fill="#b1994d"/>
      </g>
      <g id="leaf-right-fill-reg-3" data-name="leaf-right-fill-reg" transform="translate(31.647 150.446)">
        <path id="Path_243-3" data-name="Path 243" d="M1729.693,977.613c-.636,4.44-2.539,7.283-7.289,13.3l-20.33,25.867c-3.173,4.118-5.7,7.6-5.7,14.253v15.72h2.838l0-.022c0-6.65.634-9.187,3.807-13.3l19.38-24.654c4.749-6.012,7.074-9.011,7.572-16.05.682-9.628.985-15.113.985-15.113Z" transform="translate(-1696.377 -977.613)" fill="#b1994d"/>
      </g>
      <g id="leaf-right-fill-reg-4" data-name="leaf-right-fill-reg" transform="translate(31.647 185.017)">
        <path id="Path_243-4" data-name="Path 243" d="M1729.693,977.613c-.636,4.44-2.539,7.283-7.289,13.3l-20.33,25.867c-3.173,4.118-5.7,7.6-5.7,14.253v15.72h2.838l0-.022c0-6.65.634-9.187,3.807-13.3l19.38-24.654c4.749-6.012,7.074-9.011,7.572-16.05.682-9.628.985-15.113.985-15.113Z" transform="translate(-1696.377 -977.613)" fill="#b1994d"/>
      </g>
      <g id="leaf-left-fill-reg" transform="translate(0 68.673)">
        <path id="leaf-left-fill-lrg" d="M1697.645,977.613c.636,4.44,2.54,7.283,7.289,13.3l20.33,25.867c3.173,4.118,5.7,7.6,5.7,14.253v15.72h-2.838l0-.022c0-6.65-.634-9.187-3.807-13.3l-19.379-24.654c-4.749-6.012-7.074-9.01-7.572-16.05-.682-9.628-.985-15.114-.985-15.114Z" transform="translate(-1696.377 -977.613)" fill="#b1994d"/>
      </g>
      <g id="leaf-left-fill-reg-2" data-name="leaf-left-fill-reg" transform="translate(0 103.244)">
        <path id="leaf-left-fill-lrg-2" data-name="leaf-left-fill-lrg" d="M1697.645,977.613c.636,4.44,2.54,7.283,7.289,13.3l20.33,25.867c3.173,4.118,5.7,7.6,5.7,14.253v15.72h-2.838l0-.022c0-6.65-.634-9.187-3.807-13.3l-19.379-24.654c-4.749-6.012-7.074-9.01-7.572-16.05-.682-9.628-.985-15.114-.985-15.114Z" transform="translate(-1696.377 -977.613)" fill="#b1994d"/>
      </g>
      <g id="leaf-left-fill-reg-3" data-name="leaf-left-fill-reg" transform="translate(0 137.814)">
        <path id="leaf-left-fill-lrg-3" data-name="leaf-left-fill-lrg" d="M1697.645,977.613c.636,4.44,2.54,7.283,7.289,13.3l20.33,25.867c3.173,4.118,5.7,7.6,5.7,14.253v15.72h-2.838l0-.022c0-6.65-.634-9.187-3.807-13.3l-19.379-24.654c-4.749-6.012-7.074-9.01-7.572-16.05-.682-9.628-.985-15.114-.985-15.114Z" transform="translate(-1696.377 -977.613)" fill="#b1994d"/>
      </g>
      <g id="leaf-left-fill-reg-4" data-name="leaf-left-fill-reg" transform="translate(0 172.384)">
        <path id="leaf-left-fill-lrg-4" data-name="leaf-left-fill-lrg" d="M1697.645,977.613c.636,4.44,2.54,7.283,7.289,13.3l20.33,25.867c3.173,4.118,5.7,7.6,5.7,14.253v15.72h-2.838l0-.022c0-6.65-.634-9.187-3.807-13.3l-19.379-24.654c-4.749-6.012-7.074-9.01-7.572-16.05-.682-9.628-.985-15.114-.985-15.114Z" transform="translate(-1696.377 -977.613)" fill="#b1994d"/>
      </g>
      <g id="leaf-stem-fill" transform="translate(31.647 81.007)">
        <rect id="leaf-stem-fill-2" data-name="leaf-stem-fill" width="2.859" height="343.17" fill="#b1994d"/>
      </g>
    </g>
    <g id="Group_2118" data-name="Group 2118" transform="translate(454 1931.879)">
      <g id="leaf-right-fill-reg-5" data-name="leaf-right-fill-reg" transform="translate(41.2 59.347)">
        <path id="Path_243-5" data-name="Path 243" d="M1729.638,977.613c-.636,4.433-2.535,7.271-7.277,13.279l-20.3,25.824c-3.168,4.111-5.688,7.589-5.688,14.229v15.694h2.833l0-.022c0-6.639.633-9.172,3.8-13.279l19.348-24.614c4.742-6,7.063-9,7.56-16.024.681-9.612.983-15.088.983-15.088Z" transform="translate(-1696.377 -977.613)" fill="#b1994d"/>
      </g>
      <g id="leaf-right-fill-reg-6" data-name="leaf-right-fill-reg" transform="translate(41.2 93.86)">
        <path id="Path_243-6" data-name="Path 243" d="M1729.638,977.613c-.636,4.433-2.535,7.271-7.277,13.279l-20.3,25.824c-3.168,4.111-5.688,7.589-5.688,14.229v15.694h2.833l0-.022c0-6.639.633-9.172,3.8-13.279l19.348-24.614c4.742-6,7.063-9,7.56-16.024.681-9.612.983-15.088.983-15.088Z" transform="translate(-1696.377 -977.613)" fill="#b1994d"/>
      </g>
      <g id="leaf-right-fill-reg-7" data-name="leaf-right-fill-reg" transform="translate(41.2 128.374)">
        <path id="Path_243-7" data-name="Path 243" d="M1729.638,977.613c-.636,4.433-2.535,7.271-7.277,13.279l-20.3,25.824c-3.168,4.111-5.688,7.589-5.688,14.229v15.694h2.833l0-.022c0-6.639.633-9.172,3.8-13.279l19.348-24.614c4.742-6,7.063-9,7.56-16.024.681-9.612.983-15.088.983-15.088Z" transform="translate(-1696.377 -977.613)" fill="#b1994d"/>
      </g>
      <g id="leaf-right-fill-reg-8" data-name="leaf-right-fill-reg" transform="translate(41.2 162.887)">
        <path id="Path_243-8" data-name="Path 243" d="M1729.638,977.613c-.636,4.433-2.535,7.271-7.277,13.279l-20.3,25.824c-3.168,4.111-5.688,7.589-5.688,14.229v15.694h2.833l0-.022c0-6.639.633-9.172,3.8-13.279l19.348-24.614c4.742-6,7.063-9,7.56-16.024.681-9.612.983-15.088.983-15.088Z" transform="translate(-1696.377 -977.613)" fill="#b1994d"/>
      </g>
      <g id="leaf-right-fill-reg-9" data-name="leaf-right-fill-reg" transform="translate(41.2 197.401)">
        <path id="Path_243-9" data-name="Path 243" d="M1729.638,977.613c-.636,4.433-2.535,7.271-7.277,13.279l-20.3,25.824c-3.168,4.111-5.688,7.589-5.688,14.229v15.694h2.833l0-.022c0-6.639.633-9.172,3.8-13.279l19.348-24.614c4.742-6,7.063-9,7.56-16.024.681-9.612.983-15.088.983-15.088Z" transform="translate(-1696.377 -977.613)" fill="#b1994d"/>
      </g>
      <g id="leaf-right-fill-reg-10" data-name="leaf-right-fill-reg" transform="translate(41.2 231.914)">
        <path id="Path_243-10" data-name="Path 243" d="M1729.638,977.613c-.636,4.433-2.535,7.271-7.277,13.279l-20.3,25.824c-3.168,4.111-5.688,7.589-5.688,14.229v15.694h2.833l0-.022c0-6.639.633-9.172,3.8-13.279l19.348-24.614c4.742-6,7.063-9,7.56-16.024.681-9.612.983-15.088.983-15.088Z" transform="translate(-1696.377 -977.613)" fill="#b1994d"/>
      </g>
      <g id="leaf-left-fill-reg-5" data-name="leaf-left-fill-reg" transform="translate(9.606 46.736)">
        <path id="leaf-left-fill-lrg-5" data-name="leaf-left-fill-lrg" d="M1697.643,977.613c.635,4.433,2.536,7.271,7.277,13.279l20.3,25.824c3.168,4.111,5.688,7.589,5.688,14.229v15.694h-2.833l0-.022c0-6.639-.633-9.172-3.8-13.278l-19.348-24.614c-4.741-6-7.062-9-7.56-16.023-.68-9.612-.983-15.089-.983-15.089Z" transform="translate(-1696.377 -977.613)" fill="#b1994d"/>
      </g>
      <g id="leaf-left-fill-reg-6" data-name="leaf-left-fill-reg" transform="translate(9.606 81.249)">
        <path id="leaf-left-fill-lrg-6" data-name="leaf-left-fill-lrg" d="M1697.643,977.613c.635,4.433,2.536,7.271,7.277,13.279l20.3,25.824c3.168,4.111,5.688,7.589,5.688,14.229v15.694h-2.833l0-.022c0-6.639-.633-9.172-3.8-13.278l-19.348-24.614c-4.741-6-7.062-9-7.56-16.023-.68-9.612-.983-15.089-.983-15.089Z" transform="translate(-1696.377 -977.613)" fill="#b1994d"/>
      </g>
      <g id="leaf-left-fill-reg-7" data-name="leaf-left-fill-reg" transform="translate(9.606 115.763)">
        <path id="leaf-left-fill-lrg-7" data-name="leaf-left-fill-lrg" d="M1697.643,977.613c.635,4.433,2.536,7.271,7.277,13.279l20.3,25.824c3.168,4.111,5.688,7.589,5.688,14.229v15.694h-2.833l0-.022c0-6.639-.633-9.172-3.8-13.278l-19.348-24.614c-4.741-6-7.062-9-7.56-16.023-.68-9.612-.983-15.089-.983-15.089Z" transform="translate(-1696.377 -977.613)" fill="#b1994d"/>
      </g>
      <g id="leaf-left-fill-reg-8" data-name="leaf-left-fill-reg" transform="translate(9.606 184.79)">
        <path id="leaf-left-fill-lrg-8" data-name="leaf-left-fill-lrg" d="M1697.643,977.613c.635,4.433,2.536,7.271,7.277,13.279l20.3,25.824c3.168,4.111,5.688,7.589,5.688,14.229v15.694h-2.833l0-.022c0-6.639-.633-9.172-3.8-13.278l-19.348-24.614c-4.741-6-7.062-9-7.56-16.023-.68-9.612-.983-15.089-.983-15.089Z" transform="translate(-1696.377 -977.613)" fill="#b1994d"/>
      </g>
      <g id="leaf-left-fill-reg-9" data-name="leaf-left-fill-reg" transform="translate(9.606 219.303)">
        <path id="leaf-left-fill-lrg-9" data-name="leaf-left-fill-lrg" d="M1697.643,977.613c.635,4.433,2.536,7.271,7.277,13.279l20.3,25.824c3.168,4.111,5.688,7.589,5.688,14.229v15.694h-2.833l0-.022c0-6.639-.633-9.172-3.8-13.278l-19.348-24.614c-4.741-6-7.062-9-7.56-16.023-.68-9.612-.983-15.089-.983-15.089Z" transform="translate(-1696.377 -977.613)" fill="#b1994d"/>
      </g>
      <g id="leaf-stem-fill-3" data-name="leaf-stem-fill" transform="translate(41.2 76.252)">
        <rect id="leaf-stem-fill-4" data-name="leaf-stem-fill" width="2.855" height="267.669" fill="#b1994d"/>
      </g>
      <g id="leaf-left-fill-lrg-10" data-name="leaf-left-fill-lrg" transform="translate(0)">
        <path id="leaf-left-fill-lrg-11" data-name="leaf-left-fill-lrg" d="M1613.087,956.915c.636,4.437,2.537,7.278,7.283,13.291l29.805,38.006c3.171,4.115,5.694,7.6,5.694,14.243v15.709h-2.835l0-.022c0-6.645-.634-9.181-3.8-13.291l-28.855-36.794c-4.746-6.007-7.069-9-7.567-16.039-.681-9.621-.984-15.1-.984-15.1Z" transform="translate(-1611.82 -956.915)" fill="#b1994d"/>
      </g>
    </g>
    <g id="Group_2119" data-name="Group 2119" transform="translate(378 2035.419)">
      <g id="leaf-right-fill-reg-11" data-name="leaf-right-fill-reg" transform="translate(41.2 59.347)">
        <path id="Path_243-11" data-name="Path 243" d="M1729.638,977.613c-.636,4.433-2.535,7.271-7.277,13.279l-20.3,25.824c-3.168,4.111-5.688,7.589-5.688,14.229v15.694h2.833l0-.022c0-6.639.633-9.172,3.8-13.279l19.348-24.614c4.742-6,7.063-9,7.56-16.024.681-9.612.983-15.088.983-15.088Z" transform="translate(-1696.377 -977.613)" fill="#b1994d"/>
      </g>
      <g id="leaf-right-fill-reg-12" data-name="leaf-right-fill-reg" transform="translate(41.2 93.861)">
        <path id="Path_243-12" data-name="Path 243" d="M1729.638,977.613c-.636,4.433-2.535,7.271-7.277,13.279l-20.3,25.824c-3.168,4.111-5.688,7.589-5.688,14.229v15.694h2.833l0-.022c0-6.639.633-9.172,3.8-13.279l19.348-24.614c4.742-6,7.063-9,7.56-16.024.681-9.612.983-15.088.983-15.088Z" transform="translate(-1696.377 -977.613)" fill="#b1994d"/>
      </g>
      <g id="leaf-right-fill-reg-13" data-name="leaf-right-fill-reg" transform="translate(41.2 128.374)">
        <path id="Path_243-13" data-name="Path 243" d="M1729.638,977.613c-.636,4.433-2.535,7.271-7.277,13.279l-20.3,25.824c-3.168,4.111-5.688,7.589-5.688,14.229v15.694h2.833l0-.022c0-6.639.633-9.172,3.8-13.279l19.348-24.614c4.742-6,7.063-9,7.56-16.024.681-9.612.983-15.088.983-15.088Z" transform="translate(-1696.377 -977.613)" fill="#b1994d"/>
      </g>
      <g id="leaf-left-fill-reg-10" data-name="leaf-left-fill-reg" transform="translate(9.606 46.736)">
        <path id="leaf-left-fill-lrg-12" data-name="leaf-left-fill-lrg" d="M1697.643,977.613c.635,4.433,2.536,7.271,7.277,13.279l20.3,25.824c3.168,4.111,5.688,7.589,5.688,14.229v15.694h-2.833l0-.022c0-6.639-.633-9.172-3.8-13.278l-19.348-24.614c-4.741-6-7.062-9-7.56-16.023-.68-9.612-.983-15.089-.983-15.089Z" transform="translate(-1696.377 -977.613)" fill="#b1994d"/>
      </g>
      <g id="leaf-left-fill-reg-11" data-name="leaf-left-fill-reg" transform="translate(9.606 115.763)">
        <path id="leaf-left-fill-lrg-13" data-name="leaf-left-fill-lrg" d="M1697.643,977.613c.635,4.433,2.536,7.271,7.277,13.279l20.3,25.824c3.168,4.111,5.688,7.589,5.688,14.229v15.694h-2.833l0-.022c0-6.639-.633-9.172-3.8-13.278l-19.348-24.614c-4.741-6-7.062-9-7.56-16.023-.68-9.612-.983-15.089-.983-15.089Z" transform="translate(-1696.377 -977.613)" fill="#b1994d"/>
      </g>
      <g id="leaf-stem-fill-5" data-name="leaf-stem-fill" transform="translate(41.2 79.814)">
        <rect id="leaf-stem-fill-6" data-name="leaf-stem-fill" width="2.855" height="160.567" fill="#b1994d"/>
      </g>
      <g id="leaf-left-fill-lrg-14" data-name="leaf-left-fill-lrg" transform="translate(0 0)">
        <path id="leaf-left-fill-lrg-15" data-name="leaf-left-fill-lrg" d="M1613.087,956.915c.636,4.437,2.537,7.278,7.283,13.291l29.805,38.006c3.171,4.115,5.694,7.6,5.694,14.243v15.709h-2.835l0-.022c0-6.645-.634-9.181-3.8-13.291l-28.855-36.794c-4.746-6.007-7.069-9-7.567-16.039-.681-9.621-.984-15.1-.984-15.1Z" transform="translate(-1611.82 -956.915)" fill="#b1994d"/>
      </g>
    </g>
  </g>
</svg>
