<svg xmlns="http://www.w3.org/2000/svg" width="203.854" height="480.256" viewBox="0 0 203.854 480.256">
  <g id="Group_2250" data-name="Group 2250" transform="translate(-1135 -2358)">
    <g id="Group_2117" data-name="Group 2117" transform="translate(1281 2434.67)">
      <g id="leaf-right-fill-lrg" transform="translate(24.177 0)">
        <path id="Path_242" data-name="Path 242" d="M1644.528,956.915c-.486,3.392-1.94,5.564-5.568,10.161l-22.786,29.056c-2.424,3.146-4.353,5.807-4.353,10.889v12.01h2.168l0-.017c0-5.08.485-7.019,2.909-10.161l22.06-28.129c3.629-4.592,5.4-6.884,5.785-12.262.521-7.355.752-11.546.752-11.546Z" transform="translate(-1611.82 -956.915)" fill="#b1994d"/>
      </g>
      <g id="leaf-right-fill-reg" transform="translate(24.177 35.704)">
        <path id="Path_243" data-name="Path 243" d="M1721.829,977.613c-.486,3.392-1.94,5.564-5.568,10.161l-15.531,19.762c-2.424,3.146-4.353,5.808-4.353,10.889v12.01h2.168l0-.017c0-5.08.484-7.019,2.908-10.161l14.805-18.835c3.628-4.593,5.4-6.884,5.785-12.262.521-7.355.753-11.546.753-11.546Z" transform="translate(-1696.377 -977.613)" fill="#b1994d"/>
      </g>
      <g id="leaf-right-fill-reg-2" data-name="leaf-right-fill-reg" transform="translate(24.177 62.115)">
        <path id="Path_243-2" data-name="Path 243" d="M1721.829,977.613c-.486,3.392-1.94,5.564-5.568,10.161l-15.531,19.762c-2.424,3.146-4.353,5.808-4.353,10.889v12.01h2.168l0-.017c0-5.08.484-7.019,2.908-10.161l14.805-18.835c3.628-4.593,5.4-6.884,5.785-12.262.521-7.355.753-11.546.753-11.546Z" transform="translate(-1696.377 -977.613)" fill="#b1994d"/>
      </g>
      <g id="leaf-right-fill-reg-3" data-name="leaf-right-fill-reg" transform="translate(24.177 88.525)">
        <path id="Path_243-3" data-name="Path 243" d="M1721.829,977.613c-.486,3.392-1.94,5.564-5.568,10.161l-15.531,19.762c-2.424,3.146-4.353,5.808-4.353,10.889v12.01h2.168l0-.017c0-5.08.484-7.019,2.908-10.161l14.805-18.835c3.628-4.593,5.4-6.884,5.785-12.262.521-7.355.753-11.546.753-11.546Z" transform="translate(-1696.377 -977.613)" fill="#b1994d"/>
      </g>
      <g id="leaf-right-fill-reg-4" data-name="leaf-right-fill-reg" transform="translate(24.177 114.936)">
        <path id="Path_243-4" data-name="Path 243" d="M1721.829,977.613c-.486,3.392-1.94,5.564-5.568,10.161l-15.531,19.762c-2.424,3.146-4.353,5.808-4.353,10.889v12.01h2.168l0-.017c0-5.08.484-7.019,2.908-10.161l14.805-18.835c3.628-4.593,5.4-6.884,5.785-12.262.521-7.355.753-11.546.753-11.546Z" transform="translate(-1696.377 -977.613)" fill="#b1994d"/>
      </g>
      <g id="leaf-right-fill-reg-5" data-name="leaf-right-fill-reg" transform="translate(24.177 167.758)">
        <path id="Path_243-5" data-name="Path 243" d="M1721.829,977.613c-.486,3.392-1.94,5.564-5.568,10.161l-15.531,19.762c-2.424,3.146-4.353,5.808-4.353,10.889v12.01h2.168l0-.017c0-5.08.484-7.019,2.908-10.161l14.805-18.835c3.628-4.593,5.4-6.884,5.785-12.262.521-7.355.753-11.546.753-11.546Z" transform="translate(-1696.377 -977.613)" fill="#b1994d"/>
      </g>
      <g id="leaf-right-fill-reg-6" data-name="leaf-right-fill-reg" transform="translate(24.177 194.169)">
        <path id="Path_243-6" data-name="Path 243" d="M1721.829,977.613c-.486,3.392-1.94,5.564-5.568,10.161l-15.531,19.762c-2.424,3.146-4.353,5.808-4.353,10.889v12.01h2.168l0-.017c0-5.08.484-7.019,2.908-10.161l14.805-18.835c3.628-4.593,5.4-6.884,5.785-12.262.521-7.355.753-11.546.753-11.546Z" transform="translate(-1696.377 -977.613)" fill="#b1994d"/>
      </g>
      <g id="leaf-right-fill-reg-7" data-name="leaf-right-fill-reg" transform="translate(24.177 220.579)">
        <path id="Path_243-7" data-name="Path 243" d="M1721.829,977.613c-.486,3.392-1.94,5.564-5.568,10.161l-15.531,19.762c-2.424,3.146-4.353,5.808-4.353,10.889v12.01h2.168l0-.017c0-5.08.484-7.019,2.908-10.161l14.805-18.835c3.628-4.593,5.4-6.884,5.785-12.262.521-7.355.753-11.546.753-11.546Z" transform="translate(-1696.377 -977.613)" fill="#b1994d"/>
      </g>
      <g id="leaf-left-fill-reg" transform="translate(0 52.464)">
        <path id="leaf-left-fill-lrg" d="M1697.346,977.613c.486,3.392,1.94,5.564,5.568,10.161l15.532,19.762c2.424,3.146,4.353,5.808,4.353,10.889v12.009h-2.168l0-.017c0-5.08-.484-7.019-2.908-10.161l-14.805-18.835c-3.628-4.593-5.4-6.884-5.785-12.262-.521-7.355-.752-11.546-.752-11.546Z" transform="translate(-1696.377 -977.613)" fill="#b1994d"/>
      </g>
      <g id="leaf-left-fill-reg-2" data-name="leaf-left-fill-reg" transform="translate(0 105.286)">
        <path id="leaf-left-fill-lrg-2" data-name="leaf-left-fill-lrg" d="M1697.346,977.613c.486,3.392,1.94,5.564,5.568,10.161l15.532,19.762c2.424,3.146,4.353,5.808,4.353,10.889v12.009h-2.168l0-.017c0-5.08-.484-7.019-2.908-10.161l-14.805-18.835c-3.628-4.593-5.4-6.884-5.785-12.262-.521-7.355-.752-11.546-.752-11.546Z" transform="translate(-1696.377 -977.613)" fill="#b1994d"/>
      </g>
      <g id="leaf-left-fill-reg-3" data-name="leaf-left-fill-reg" transform="translate(0 131.696)">
        <path id="leaf-left-fill-lrg-3" data-name="leaf-left-fill-lrg" d="M1697.346,977.613c.486,3.392,1.94,5.564,5.568,10.161l15.532,19.762c2.424,3.146,4.353,5.808,4.353,10.889v12.009h-2.168l0-.017c0-5.08-.484-7.019-2.908-10.161l-14.805-18.835c-3.628-4.593-5.4-6.884-5.785-12.262-.521-7.355-.752-11.546-.752-11.546Z" transform="translate(-1696.377 -977.613)" fill="#b1994d"/>
      </g>
      <g id="leaf-left-fill-reg-4" data-name="leaf-left-fill-reg" transform="translate(0 158.107)">
        <path id="leaf-left-fill-lrg-4" data-name="leaf-left-fill-lrg" d="M1697.346,977.613c.486,3.392,1.94,5.564,5.568,10.161l15.532,19.762c2.424,3.146,4.353,5.808,4.353,10.889v12.009h-2.168l0-.017c0-5.08-.484-7.019-2.908-10.161l-14.805-18.835c-3.628-4.593-5.4-6.884-5.785-12.262-.521-7.355-.752-11.546-.752-11.546Z" transform="translate(-1696.377 -977.613)" fill="#b1994d"/>
      </g>
      <g id="leaf-left-fill-reg-5" data-name="leaf-left-fill-reg" transform="translate(0 184.518)">
        <path id="leaf-left-fill-lrg-5" data-name="leaf-left-fill-lrg" d="M1697.346,977.613c.486,3.392,1.94,5.564,5.568,10.161l15.532,19.762c2.424,3.146,4.353,5.808,4.353,10.889v12.009h-2.168l0-.017c0-5.08-.484-7.019-2.908-10.161l-14.805-18.835c-3.628-4.593-5.4-6.884-5.785-12.262-.521-7.355-.752-11.546-.752-11.546Z" transform="translate(-1696.377 -977.613)" fill="#b1994d"/>
      </g>
      <g id="leaf-left-fill-reg-6" data-name="leaf-left-fill-reg" transform="translate(0 210.929)">
        <path id="leaf-left-fill-lrg-6" data-name="leaf-left-fill-lrg" d="M1697.346,977.613c.486,3.392,1.94,5.564,5.568,10.161l15.532,19.762c2.424,3.146,4.353,5.808,4.353,10.889v12.009h-2.168l0-.017c0-5.08-.484-7.019-2.908-10.161l-14.805-18.835c-3.628-4.593-5.4-6.884-5.785-12.262-.521-7.355-.752-11.546-.752-11.546Z" transform="translate(-1696.377 -977.613)" fill="#b1994d"/>
      </g>
      <g id="leaf-stem-fill" transform="translate(24.177 56.517)">
        <rect id="leaf-stem-fill-2" data-name="leaf-stem-fill" width="2.184" height="346.773" fill="#b1994d"/>
      </g>
    </g>
    <g id="Group_2116" data-name="Group 2116" transform="translate(1208 2358)">
      <g id="leaf-right-fill-lrg-2" data-name="leaf-right-fill-lrg" transform="translate(24.177 0)">
        <path id="Path_242-2" data-name="Path 242" d="M1644.528,956.915c-.486,3.392-1.94,5.564-5.568,10.161l-22.786,29.056c-2.424,3.146-4.353,5.807-4.353,10.889v12.01h2.168l0-.017c0-5.08.485-7.019,2.909-10.161l22.06-28.129c3.629-4.592,5.4-6.884,5.785-12.262.521-7.355.752-11.546.752-11.546Z" transform="translate(-1611.82 -956.915)" fill="#b1994d"/>
      </g>
      <g id="leaf-right-fill-reg-8" data-name="leaf-right-fill-reg" transform="translate(24.177 37.131)">
        <path id="Path_243-8" data-name="Path 243" d="M1721.829,977.613c-.486,3.392-1.94,5.564-5.568,10.161l-15.531,19.762c-2.424,3.146-4.353,5.808-4.353,10.889v12.01h2.168l0-.017c0-5.08.484-7.019,2.908-10.161l14.805-18.835c3.628-4.593,5.4-6.884,5.785-12.262.521-7.355.753-11.546.753-11.546Z" transform="translate(-1696.377 -977.613)" fill="#b1994d"/>
      </g>
      <g id="leaf-right-fill-reg-9" data-name="leaf-right-fill-reg" transform="translate(24.177 62.115)">
        <path id="Path_243-9" data-name="Path 243" d="M1721.829,977.613c-.486,3.392-1.94,5.564-5.568,10.161l-15.531,19.762c-2.424,3.146-4.353,5.808-4.353,10.889v12.01h2.168l0-.017c0-5.08.484-7.019,2.908-10.161l14.805-18.835c3.628-4.593,5.4-6.884,5.785-12.262.521-7.355.753-11.546.753-11.546Z" transform="translate(-1696.377 -977.613)" fill="#b1994d"/>
      </g>
      <g id="leaf-right-fill-reg-10" data-name="leaf-right-fill-reg" transform="translate(24.177 87.259)">
        <path id="Path_243-10" data-name="Path 243" d="M1721.829,977.613c-.486,3.392-1.94,5.564-5.568,10.161l-15.531,19.762c-2.424,3.146-4.353,5.808-4.353,10.889v12.01h2.168l0-.017c0-5.08.484-7.019,2.908-10.161l14.805-18.835c3.628-4.593,5.4-6.884,5.785-12.262.521-7.355.753-11.546.753-11.546Z" transform="translate(-1696.377 -977.613)" fill="#b1994d"/>
      </g>
      <g id="leaf-right-fill-reg-11" data-name="leaf-right-fill-reg" transform="translate(24.177 140.08)">
        <path id="Path_243-11" data-name="Path 243" d="M1721.829,977.613c-.486,3.392-1.94,5.564-5.568,10.161l-15.531,19.762c-2.424,3.146-4.353,5.808-4.353,10.889v12.01h2.168l0-.017c0-5.08.484-7.019,2.908-10.161l14.805-18.835c3.628-4.593,5.4-6.884,5.785-12.262.521-7.355.753-11.546.753-11.546Z" transform="translate(-1696.377 -977.613)" fill="#b1994d"/>
      </g>
      <g id="leaf-right-fill-reg-12" data-name="leaf-right-fill-reg" transform="translate(24.177 166.491)">
        <path id="Path_243-12" data-name="Path 243" d="M1721.829,977.613c-.486,3.392-1.94,5.564-5.568,10.161l-15.531,19.762c-2.424,3.146-4.353,5.808-4.353,10.889v12.01h2.168l0-.017c0-5.08.484-7.019,2.908-10.161l14.805-18.835c3.628-4.593,5.4-6.884,5.785-12.262.521-7.355.753-11.546.753-11.546Z" transform="translate(-1696.377 -977.613)" fill="#b1994d"/>
      </g>
      <g id="leaf-right-fill-reg-13" data-name="leaf-right-fill-reg" transform="translate(24.177 192.902)">
        <path id="Path_243-13" data-name="Path 243" d="M1721.829,977.613c-.486,3.392-1.94,5.564-5.568,10.161l-15.531,19.762c-2.424,3.146-4.353,5.808-4.353,10.889v12.01h2.168l0-.017c0-5.08.484-7.019,2.908-10.161l14.805-18.835c3.628-4.593,5.4-6.884,5.785-12.262.521-7.355.753-11.546.753-11.546Z" transform="translate(-1696.377 -977.613)" fill="#b1994d"/>
      </g>
      <g id="leaf-right-fill-reg-14" data-name="leaf-right-fill-reg" transform="translate(24.177 219.312)">
        <path id="Path_243-14" data-name="Path 243" d="M1721.829,977.613c-.486,3.392-1.94,5.564-5.568,10.161l-15.531,19.762c-2.424,3.146-4.353,5.808-4.353,10.889v12.01h2.168l0-.017c0-5.08.484-7.019,2.908-10.161l14.805-18.835c3.628-4.593,5.4-6.884,5.785-12.262.521-7.355.753-11.546.753-11.546Z" transform="translate(-1696.377 -977.613)" fill="#b1994d"/>
      </g>
      <g id="leaf-right-fill-reg-15" data-name="leaf-right-fill-reg" transform="translate(24.177 272.134)">
        <path id="Path_243-15" data-name="Path 243" d="M1721.829,977.613c-.486,3.392-1.94,5.564-5.568,10.161l-15.531,19.762c-2.424,3.146-4.353,5.808-4.353,10.889v12.01h2.168l0-.017c0-5.08.484-7.019,2.908-10.161l14.805-18.835c3.628-4.593,5.4-6.884,5.785-12.262.521-7.355.753-11.546.753-11.546Z" transform="translate(-1696.377 -977.613)" fill="#b1994d"/>
      </g>
      <g id="leaf-right-fill-reg-16" data-name="leaf-right-fill-reg" transform="translate(24.177 298.545)">
        <path id="Path_243-16" data-name="Path 243" d="M1721.829,977.613c-.486,3.392-1.94,5.564-5.568,10.161l-15.531,19.762c-2.424,3.146-4.353,5.808-4.353,10.889v12.01h2.168l0-.017c0-5.08.484-7.019,2.908-10.161l14.805-18.835c3.628-4.593,5.4-6.884,5.785-12.262.521-7.355.753-11.546.753-11.546Z" transform="translate(-1696.377 -977.613)" fill="#b1994d"/>
      </g>
      <g id="leaf-left-fill-reg-7" data-name="leaf-left-fill-reg" transform="translate(0 51.198)">
        <path id="leaf-left-fill-lrg-7" data-name="leaf-left-fill-lrg" d="M1697.346,977.613c.486,3.392,1.94,5.564,5.568,10.161l15.532,19.762c2.424,3.146,4.353,5.808,4.353,10.889v12.009h-2.168l0-.017c0-5.08-.484-7.019-2.908-10.161l-14.805-18.835c-3.628-4.593-5.4-6.884-5.785-12.262-.521-7.355-.752-11.546-.752-11.546Z" transform="translate(-1696.377 -977.613)" fill="#b1994d"/>
      </g>
      <g id="leaf-left-fill-reg-8" data-name="leaf-left-fill-reg" transform="translate(0 77.609)">
        <path id="leaf-left-fill-lrg-8" data-name="leaf-left-fill-lrg" d="M1697.346,977.613c.486,3.392,1.94,5.564,5.568,10.161l15.532,19.762c2.424,3.146,4.353,5.808,4.353,10.889v12.009h-2.168l0-.017c0-5.08-.484-7.019-2.908-10.161l-14.805-18.835c-3.628-4.593-5.4-6.884-5.785-12.262-.521-7.355-.752-11.546-.752-11.546Z" transform="translate(-1696.377 -977.613)" fill="#b1994d"/>
      </g>
      <g id="leaf-left-fill-reg-9" data-name="leaf-left-fill-reg" transform="translate(0 104.019)">
        <path id="leaf-left-fill-lrg-9" data-name="leaf-left-fill-lrg" d="M1697.346,977.613c.486,3.392,1.94,5.564,5.568,10.161l15.532,19.762c2.424,3.146,4.353,5.808,4.353,10.889v12.009h-2.168l0-.017c0-5.08-.484-7.019-2.908-10.161l-14.805-18.835c-3.628-4.593-5.4-6.884-5.785-12.262-.521-7.355-.752-11.546-.752-11.546Z" transform="translate(-1696.377 -977.613)" fill="#b1994d"/>
      </g>
      <g id="leaf-left-fill-reg-10" data-name="leaf-left-fill-reg" transform="translate(0 130.43)">
        <path id="leaf-left-fill-lrg-10" data-name="leaf-left-fill-lrg" d="M1697.346,977.613c.486,3.392,1.94,5.564,5.568,10.161l15.532,19.762c2.424,3.146,4.353,5.808,4.353,10.889v12.009h-2.168l0-.017c0-5.08-.484-7.019-2.908-10.161l-14.805-18.835c-3.628-4.593-5.4-6.884-5.785-12.262-.521-7.355-.752-11.546-.752-11.546Z" transform="translate(-1696.377 -977.613)" fill="#b1994d"/>
      </g>
      <g id="leaf-left-fill-reg-11" data-name="leaf-left-fill-reg" transform="translate(0 156.841)">
        <path id="leaf-left-fill-lrg-11" data-name="leaf-left-fill-lrg" d="M1697.346,977.613c.486,3.392,1.94,5.564,5.568,10.161l15.532,19.762c2.424,3.146,4.353,5.808,4.353,10.889v12.009h-2.168l0-.017c0-5.08-.484-7.019-2.908-10.161l-14.805-18.835c-3.628-4.593-5.4-6.884-5.785-12.262-.521-7.355-.752-11.546-.752-11.546Z" transform="translate(-1696.377 -977.613)" fill="#b1994d"/>
      </g>
      <g id="leaf-left-fill-reg-12" data-name="leaf-left-fill-reg" transform="translate(0 209.662)">
        <path id="leaf-left-fill-lrg-12" data-name="leaf-left-fill-lrg" d="M1697.346,977.613c.486,3.392,1.94,5.564,5.568,10.161l15.532,19.762c2.424,3.146,4.353,5.808,4.353,10.889v12.009h-2.168l0-.017c0-5.08-.484-7.019-2.908-10.161l-14.805-18.835c-3.628-4.593-5.4-6.884-5.785-12.262-.521-7.355-.752-11.546-.752-11.546Z" transform="translate(-1696.377 -977.613)" fill="#b1994d"/>
      </g>
      <g id="leaf-left-fill-reg-13" data-name="leaf-left-fill-reg" transform="translate(0 236.073)">
        <path id="leaf-left-fill-lrg-13" data-name="leaf-left-fill-lrg" d="M1697.346,977.613c.486,3.392,1.94,5.564,5.568,10.161l15.532,19.762c2.424,3.146,4.353,5.808,4.353,10.889v12.009h-2.168l0-.017c0-5.08-.484-7.019-2.908-10.161l-14.805-18.835c-3.628-4.593-5.4-6.884-5.785-12.262-.521-7.355-.752-11.546-.752-11.546Z" transform="translate(-1696.377 -977.613)" fill="#b1994d"/>
      </g>
      <g id="leaf-left-fill-reg-14" data-name="leaf-left-fill-reg" transform="translate(0 262.484)">
        <path id="leaf-left-fill-lrg-14" data-name="leaf-left-fill-lrg" d="M1697.346,977.613c.486,3.392,1.94,5.564,5.568,10.161l15.532,19.762c2.424,3.146,4.353,5.808,4.353,10.889v12.009h-2.168l0-.017c0-5.08-.484-7.019-2.908-10.161l-14.805-18.835c-3.628-4.593-5.4-6.884-5.785-12.262-.521-7.355-.752-11.546-.752-11.546Z" transform="translate(-1696.377 -977.613)" fill="#b1994d"/>
      </g>
      <g id="leaf-left-fill-reg-15" data-name="leaf-left-fill-reg" transform="translate(0 288.894)">
        <path id="leaf-left-fill-lrg-15" data-name="leaf-left-fill-lrg" d="M1697.346,977.613c.486,3.392,1.94,5.564,5.568,10.161l15.532,19.762c2.424,3.146,4.353,5.808,4.353,10.889v12.009h-2.168l0-.017c0-5.08-.484-7.019-2.908-10.161l-14.805-18.835c-3.628-4.593-5.4-6.884-5.785-12.262-.521-7.355-.752-11.546-.752-11.546Z" transform="translate(-1696.377 -977.613)" fill="#b1994d"/>
      </g>
      <g id="leaf-stem-fill-3" data-name="leaf-stem-fill" transform="translate(24.177 60.457)">
        <rect id="leaf-stem-fill-4" data-name="leaf-stem-fill" width="2.184" height="419.8" fill="#b1994d"/>
      </g>
    </g>
    <g id="Group_2120" data-name="Group 2120" transform="translate(1135 2513.983)">
      <g id="leaf-right-fill-lrg-3" data-name="leaf-right-fill-lrg" transform="translate(24.177 0)">
        <path id="Path_242-3" data-name="Path 242" d="M1644.528,956.915c-.486,3.392-1.94,5.564-5.568,10.161l-22.786,29.056c-2.424,3.146-4.353,5.807-4.353,10.889v12.01h2.168l0-.017c0-5.08.485-7.019,2.909-10.161l22.06-28.129c3.629-4.592,5.4-6.884,5.785-12.262.521-7.355.752-11.546.752-11.546Z" transform="translate(-1611.82 -956.915)" fill="#b1994d"/>
      </g>
      <g id="leaf-right-fill-reg-17" data-name="leaf-right-fill-reg" transform="translate(24.177 35.704)">
        <path id="Path_243-17" data-name="Path 243" d="M1721.829,977.613c-.486,3.392-1.94,5.564-5.568,10.161l-15.531,19.762c-2.424,3.146-4.353,5.808-4.353,10.889v12.01h2.168l0-.017c0-5.08.484-7.019,2.908-10.161l14.805-18.835c3.628-4.593,5.4-6.884,5.785-12.262.521-7.355.753-11.546.753-11.546Z" transform="translate(-1696.377 -977.613)" fill="#b1994d"/>
      </g>
      <g id="leaf-right-fill-reg-18" data-name="leaf-right-fill-reg" transform="translate(24.177 88.526)">
        <path id="Path_243-18" data-name="Path 243" d="M1721.829,977.613c-.486,3.392-1.94,5.564-5.568,10.161l-15.531,19.762c-2.424,3.146-4.353,5.808-4.353,10.889v12.01h2.168l0-.017c0-5.08.484-7.019,2.908-10.161l14.805-18.835c3.628-4.593,5.4-6.884,5.785-12.262.521-7.355.753-11.546.753-11.546Z" transform="translate(-1696.377 -977.613)" fill="#b1994d"/>
      </g>
      <g id="leaf-right-fill-reg-19" data-name="leaf-right-fill-reg" transform="translate(24.177 114.936)">
        <path id="Path_243-19" data-name="Path 243" d="M1721.829,977.613c-.486,3.392-1.94,5.564-5.568,10.161l-15.531,19.762c-2.424,3.146-4.353,5.808-4.353,10.889v12.01h2.168l0-.017c0-5.08.484-7.019,2.908-10.161l14.805-18.835c3.628-4.593,5.4-6.884,5.785-12.262.521-7.355.753-11.546.753-11.546Z" transform="translate(-1696.377 -977.613)" fill="#b1994d"/>
      </g>
      <g id="leaf-right-fill-reg-20" data-name="leaf-right-fill-reg" transform="translate(24.177 141.347)">
        <path id="Path_243-20" data-name="Path 243" d="M1721.829,977.613c-.486,3.392-1.94,5.564-5.568,10.161l-15.531,19.762c-2.424,3.146-4.353,5.808-4.353,10.889v12.01h2.168l0-.017c0-5.08.484-7.019,2.908-10.161l14.805-18.835c3.628-4.593,5.4-6.884,5.785-12.262.521-7.355.753-11.546.753-11.546Z" transform="translate(-1696.377 -977.613)" fill="#b1994d"/>
      </g>
      <g id="leaf-left-fill-reg-16" data-name="leaf-left-fill-reg" transform="translate(0 52.464)">
        <path id="leaf-left-fill-lrg-16" data-name="leaf-left-fill-lrg" d="M1697.346,977.613c.486,3.392,1.94,5.564,5.568,10.161l15.532,19.762c2.424,3.146,4.353,5.808,4.353,10.889v12.009h-2.168l0-.017c0-5.08-.484-7.019-2.908-10.161l-14.805-18.835c-3.628-4.593-5.4-6.884-5.785-12.262-.521-7.355-.752-11.546-.752-11.546Z" transform="translate(-1696.377 -977.613)" fill="#b1994d"/>
      </g>
      <g id="leaf-left-fill-reg-17" data-name="leaf-left-fill-reg" transform="translate(0 78.875)">
        <path id="leaf-left-fill-lrg-17" data-name="leaf-left-fill-lrg" d="M1697.346,977.613c.486,3.392,1.94,5.564,5.568,10.161l15.532,19.762c2.424,3.146,4.353,5.808,4.353,10.889v12.009h-2.168l0-.017c0-5.08-.484-7.019-2.908-10.161l-14.805-18.835c-3.628-4.593-5.4-6.884-5.785-12.262-.521-7.355-.752-11.546-.752-11.546Z" transform="translate(-1696.377 -977.613)" fill="#b1994d"/>
      </g>
      <g id="leaf-left-fill-reg-18" data-name="leaf-left-fill-reg" transform="translate(0 105.286)">
        <path id="leaf-left-fill-lrg-18" data-name="leaf-left-fill-lrg" d="M1697.346,977.613c.486,3.392,1.94,5.564,5.568,10.161l15.532,19.762c2.424,3.146,4.353,5.808,4.353,10.889v12.009h-2.168l0-.017c0-5.08-.484-7.019-2.908-10.161l-14.805-18.835c-3.628-4.593-5.4-6.884-5.785-12.262-.521-7.355-.752-11.546-.752-11.546Z" transform="translate(-1696.377 -977.613)" fill="#b1994d"/>
      </g>
      <g id="leaf-left-fill-reg-19" data-name="leaf-left-fill-reg" transform="translate(0 131.696)">
        <path id="leaf-left-fill-lrg-19" data-name="leaf-left-fill-lrg" d="M1697.346,977.613c.486,3.392,1.94,5.564,5.568,10.161l15.532,19.762c2.424,3.146,4.353,5.808,4.353,10.889v12.009h-2.168l0-.017c0-5.08-.484-7.019-2.908-10.161l-14.805-18.835c-3.628-4.593-5.4-6.884-5.785-12.262-.521-7.355-.752-11.546-.752-11.546Z" transform="translate(-1696.377 -977.613)" fill="#b1994d"/>
      </g>
      <g id="leaf-stem-fill-5" data-name="leaf-stem-fill" transform="translate(24.177 61.887)">
        <rect id="leaf-stem-fill-6" data-name="leaf-stem-fill" width="2.184" height="262.172" fill="#b1994d"/>
      </g>
    </g>
  </g>
</svg>
