<svg xmlns="http://www.w3.org/2000/svg" width="133.201" height="60" viewBox="0 0 133.201 60">
  <g id="Group_1887" data-name="Group 1887" transform="translate(-161.862 -403.426)">
    <g id="Group_1885" data-name="Group 1885" transform="translate(161.862 403.426)">
      <path id="Path_4337" data-name="Path 4337" d="M162.617,463.426a.756.756,0,0,1,0-1.512H166.3V411.439h-1.18a.757.757,0,0,1-.757-.756v-6.5a.757.757,0,0,1,.757-.756h50.513a.756.756,0,0,1,.756.756v6.5a.756.756,0,0,1-.756.756h-1.18v25.827h0a.1.1,0,0,0-.013.052l-.02.228h2.752a.756.756,0,0,1,.756.756v5.684a.757.757,0,0,1-.756.756h-1.106v17.172h5.773v-3.293l-.164-.036a4.293,4.293,0,0,1-3.347-4.161v-2.682a4.267,4.267,0,0,1,8.535,0v2.682a4.291,4.291,0,0,1-3.347,4.161l-.164.036v3.293H228.9a.756.756,0,1,1,0,1.512ZM207.4,450.147a.756.756,0,0,1,.755.755v11.012h6.394V444.742H185.419v17.172h7.017V450.9a.756.756,0,0,1,.756-.755h6.879a.464.464,0,0,1,.118.024l.052.014h.106a.82.82,0,0,1,.177-.039Zm-6.125,11.767h5.368V451.658h-5.368Zm-7.331,0h5.367V451.658h-5.367Zm-26.136,0h16.095V444.742h-1.128a.757.757,0,0,1-.756-.756V438.3a.757.757,0,0,1,.756-.756h6.874l-.021-.249-.013-.052v-25.8H167.812Zm54.782-12.928a2.759,2.759,0,0,0-2.756,2.756v2.682a2.756,2.756,0,0,0,5.511,0v-2.682A2.758,2.758,0,0,0,222.593,448.986Zm-39.059-5.756h32.88v-4.173h-32.88Zm7.6-5.965s-.01.024-.013.052l-.02.228h21.874l-.021-.249-.013-.052V411.439H191.132v25.827Zm-25.255-27.338h49v-4.99h-49Z" transform="translate(-161.862 -403.426)" fill="#b1994d"/>
      <path id="Path_4338" data-name="Path 4338" d="M209.584,428.586a.756.756,0,0,1-.756-.756v-4.324a.756.756,0,0,1,1.511,0v4.324A.756.756,0,0,1,209.584,428.586Z" transform="translate(-175.985 -409.237)" fill="#b1994d"/>
      <path id="Path_4339" data-name="Path 4339" d="M218.59,428.586a.756.756,0,0,1-.756-.756v-4.324a.756.756,0,0,1,1.512,0v4.324A.756.756,0,0,1,218.59,428.586Z" transform="translate(-178.694 -409.237)" fill="#b1994d"/>
      <path id="Path_4340" data-name="Path 4340" d="M227.593,428.586a.756.756,0,0,1-.756-.756v-4.324a.756.756,0,0,1,1.512,0v4.324A.756.756,0,0,1,227.593,428.586Z" transform="translate(-181.401 -409.237)" fill="#b1994d"/>
      <path id="Path_4341" data-name="Path 4341" d="M209.584,444.875a.756.756,0,0,1-.756-.756v-4.324a.756.756,0,1,1,1.511,0v4.324A.757.757,0,0,1,209.584,444.875Z" transform="translate(-175.985 -414.135)" fill="#b1994d"/>
      <path id="Path_4342" data-name="Path 4342" d="M218.59,444.875a.757.757,0,0,1-.756-.756v-4.324a.756.756,0,0,1,1.512,0v4.324A.757.757,0,0,1,218.59,444.875Z" transform="translate(-178.694 -414.135)" fill="#b1994d"/>
      <path id="Path_4343" data-name="Path 4343" d="M227.593,444.875a.757.757,0,0,1-.756-.756v-4.324a.756.756,0,0,1,1.512,0v4.324A.757.757,0,0,1,227.593,444.875Z" transform="translate(-181.401 -414.135)" fill="#b1994d"/>
      <path id="Path_4344" data-name="Path 4344" d="M176.133,428.586a.756.756,0,0,1-.756-.756v-4.324a.756.756,0,0,1,1.513,0v4.324A.757.757,0,0,1,176.133,428.586Z" transform="translate(-165.926 -409.237)" fill="#b1994d"/>
      <path id="Path_4345" data-name="Path 4345" d="M185.138,428.586a.756.756,0,0,1-.756-.756v-4.324a.756.756,0,0,1,1.512,0v4.324A.756.756,0,0,1,185.138,428.586Z" transform="translate(-168.634 -409.237)" fill="#b1994d"/>
      <path id="Path_4346" data-name="Path 4346" d="M194.143,428.586a.756.756,0,0,1-.756-.756v-4.324a.756.756,0,0,1,1.512,0v4.324A.756.756,0,0,1,194.143,428.586Z" transform="translate(-171.342 -409.237)" fill="#b1994d"/>
      <path id="Path_4347" data-name="Path 4347" d="M176.133,444.875a.757.757,0,0,1-.756-.756v-4.324a.756.756,0,0,1,1.513,0v4.324A.757.757,0,0,1,176.133,444.875Z" transform="translate(-165.926 -414.135)" fill="#b1994d"/>
      <path id="Path_4348" data-name="Path 4348" d="M185.138,444.875a.757.757,0,0,1-.756-.756v-4.324a.756.756,0,0,1,1.512,0v4.324A.756.756,0,0,1,185.138,444.875Z" transform="translate(-168.634 -414.135)" fill="#b1994d"/>
      <path id="Path_4349" data-name="Path 4349" d="M194.143,444.875a.757.757,0,0,1-.756-.756v-4.324a.756.756,0,1,1,1.512,0v4.324A.757.757,0,0,1,194.143,444.875Z" transform="translate(-171.342 -414.135)" fill="#b1994d"/>
      <path id="Path_4350" data-name="Path 4350" d="M176.133,461.166a.757.757,0,0,1-.756-.757v-4.324a.756.756,0,0,1,1.513,0v4.324A.757.757,0,0,1,176.133,461.166Z" transform="translate(-165.926 -419.034)" fill="#b1994d"/>
      <path id="Path_4351" data-name="Path 4351" d="M185.138,461.166a.757.757,0,0,1-.756-.757v-4.324a.756.756,0,0,1,1.512,0v4.324A.757.757,0,0,1,185.138,461.166Z" transform="translate(-168.634 -419.034)" fill="#b1994d"/>
      <path id="Path_4352" data-name="Path 4352" d="M176.133,477.455a.757.757,0,0,1-.756-.756v-4.324a.756.756,0,0,1,1.513,0V476.7A.757.757,0,0,1,176.133,477.455Z" transform="translate(-165.926 -423.933)" fill="#b1994d"/>
      <path id="Path_4353" data-name="Path 4353" d="M185.138,477.455a.757.757,0,0,1-.756-.756v-4.324a.756.756,0,1,1,1.512,0V476.7A.756.756,0,0,1,185.138,477.455Z" transform="translate(-168.634 -423.933)" fill="#b1994d"/>
    </g>
    <g id="Group_1886" data-name="Group 1886" transform="translate(230.979 403.426)">
      <path id="Path_4354" data-name="Path 4354" d="M271.8,458.209c-.3,0-.559-.34-.559-.743v-5.237c0-1.88,1.262-3.412,2.813-3.415h0a2.587,2.587,0,0,1,2,.973,3.773,3.773,0,0,1,.85,2.443v5.237c0,.4-.256.743-.559.743Zm2.259-7.909a1.828,1.828,0,0,0-1.7,1.929l-.02,4.817h3.391l.027-4.816a1.829,1.829,0,0,0-1.7-1.93Z" transform="translate(-263.87 -417.075)" fill="#b1994d"/>
      <path id="Path_4355" data-name="Path 4355" d="M295.43,457.2c-.3,0-.559-.341-.559-.743v-5.237c0-1.884,1.264-3.415,2.817-3.415s2.818,1.531,2.818,3.415v5.237c0,.4-.256.743-.559.743Zm2.259-7.91a1.828,1.828,0,0,0-1.7,1.929l-.02,4.817h3.4l.02-4.817a1.829,1.829,0,0,0-1.7-1.929Z" transform="translate(-270.977 -416.772)" fill="#b1994d"/>
      <path id="Path_4356" data-name="Path 4356" d="M310.339,457.2c-.3,0-.559-.341-.559-.743v-5.237c0-1.882,1.264-3.413,2.817-3.414s2.818,1.531,2.819,3.414v5.237c0,.4-.256.743-.559.743Zm2.251-7.912a1.828,1.828,0,0,0-1.7,1.931l-.02,4.817h3.406l.012-4.817a1.828,1.828,0,0,0-1.7-1.931Z" transform="translate(-275.46 -416.773)" fill="#b1994d"/>
      <path id="Path_4357" data-name="Path 4357" d="M295.43,422.05c-.3,0-.559-.34-.559-.743v-2.482c0-1.882,1.264-3.413,2.816-3.414a3.164,3.164,0,0,1,2.82,3.414v2.482c0,.4-.256.743-.559.743Zm2.259-5.154a1.828,1.828,0,0,0-1.7,1.929l-.02,2.062h3.4l.02-2.061a1.829,1.829,0,0,0-1.7-1.929Z" transform="translate(-270.977 -407.03)" fill="#b1994d"/>
      <path id="Path_4358" data-name="Path 4358" d="M310.311,422.05c-.286-.009-.531-.343-.531-.743v-2.482c0-1.882,1.264-3.413,2.817-3.414s2.818,1.531,2.819,3.414v2.482c-.009.42-.26.743-.559.743Zm2.283-5.159a1.832,1.832,0,0,0-1.7,1.935l-.02,2.061h3.406l.02-2.061A1.832,1.832,0,0,0,312.595,416.891Z" transform="translate(-275.46 -407.03)" fill="#b1994d"/>
      <path id="Path_4359" data-name="Path 4359" d="M334.35,458.209c-.3,0-.559-.34-.559-.743v-5.237c0-1.884,1.264-3.415,2.817-3.415s2.818,1.531,2.818,3.415v5.237c0,.4-.256.743-.559.743Zm2.259-7.909a1.828,1.828,0,0,0-1.7,1.929l-.02,4.817h3.391l.027-4.816a1.828,1.828,0,0,0-1.7-1.93Z" transform="translate(-282.68 -417.075)" fill="#b1994d"/>
      <path id="Path_4360" data-name="Path 4360" d="M261.288,463.426c-.3,0-.559-.341-.559-.743s.256-.743.559-.743h1.552V436.376l-1.182,1.4a.522.522,0,0,1-.4.222.5.5,0,0,1-.386-.208.9.9,0,0,1,.03-1.1l9.606-11.365a.461.461,0,0,1,.743,0l2.561,3.029,6.1-2.246V409.676l-1.066.385a.432.432,0,0,1-.148.027.61.61,0,0,1-.53-.506.8.8,0,0,1,.385-.958l14.049-5.172a.436.436,0,0,1,.3,0l14.047,5.171a.75.75,0,0,1,.433.74c-.007.4-.257.725-.559.725a.407.407,0,0,1-.155-.024l-1.077-.389V426.1l6.1,2.246,2.563-3.032a.461.461,0,0,1,.743,0l9.591,11.349a.892.892,0,0,1,0,1.1.457.457,0,0,1-.743,0l-1.182-1.4v25.565h1.552c.3,0,.559.34.559.743s-.256.743-.559.743Zm32.041-1.457,4.224-.032V449.811h-4.224Zm-5.357,0h4.238l-.015-12.155h-4.223Zm19.734-26.914v26.889h13.846V435.052l-6.923-8.191Zm-9.467,13.609a.749.749,0,0,1,.418.717v12.563h7.91V436.4l-1.182,1.4a.492.492,0,0,1-.371.193.485.485,0,0,1-.369-.191.914.914,0,0,1,0-1.109l6.055-7.165-17.945-6.612L274.788,429.5l6.058,7.168a.861.861,0,0,1,.189.552c0,.4-.256.743-.559.743a.487.487,0,0,1-.369-.19l-1.183-1.4v25.565h7.931V449.4c0-.4.256-.743.559-.743Zm-34.28-13.584v26.864h13.847V435.077l-6.924-8.192Zm16.968-25.783.1.435.008.073V425.7l11.572-4.263a.424.424,0,0,1,.148-.027.429.429,0,0,1,.15.027l11.592,4.261V409.8l.046-.394-.37-.264-11.418-4.2Z" transform="translate(-260.701 -403.426)" fill="#b1994d"/>
    </g>
  </g>
</svg>
