<svg xmlns="http://www.w3.org/2000/svg" width="24" height="107.326" viewBox="0 0 24 107.326">
  <g id="Group_1" data-name="Group 1" transform="translate(-605.498 -107.667)">
    <path id="Path_1" data-name="Path 1" d="M629.1,107.667c-.2,1.509-.8,2.476-2.307,4.521l-9.442,12.929a7.378,7.378,0,0,0-1.8,4.845v14.693a16.333,16.333,0,0,0-.905-1.361l-6.412-8.765c-1.5-2.045-2.106-3.012-2.307-4.521h-.4s.1,1.865.312,5.138c.158,2.393.894,3.413,2.4,5.456l6.111,8.352c1,1.4,1.205,2.261,1.205,4.521V156.8a16.3,16.3,0,0,0-.905-1.361l-6.412-8.765c-1.5-2.045-2.106-3.012-2.307-4.521h-.4s.1,1.865.312,5.138c.158,2.393.894,3.412,2.4,5.456l6.111,8.352c1,1.4,1.205,2.261,1.205,4.521v3.339a16.316,16.316,0,0,0-.905-1.361l-6.431-8.791c-1.5-2.045-2.106-3.012-2.307-4.521h-.4s.1,1.865.312,5.138c.158,2.393.894,3.412,2.4,5.456l6.13,8.378c1,1.4,1.205,2.261,1.205,4.521v18a5.982,5.982,0,0,1-.888,3.737l.284.3c.9-1.133,1.5-1.621,1.5-4.527V171.7c0-2.261.2-3.123,1.205-4.521l6.112-8.352c1.5-2.043,2.239-3.063,2.4-5.456.216-3.273.312-5.138.312-5.138h-.4c-.2,1.509-.8,2.476-2.307,4.521l-6.412,8.765a16.276,16.276,0,0,0-.905,1.361v-3.313c0-2.261.2-3.123,1.205-4.521l6.112-8.352c1.5-2.043,2.239-3.063,2.4-5.456.216-3.273.312-5.138.312-5.138h-.4c-.2,1.509-.8,2.476-2.307,4.521l-6.412,8.765a16.268,16.268,0,0,0-.905,1.361v-3.313c0-2.261.2-3.123,1.205-4.521l6.131-8.378c1.5-2.043,2.239-3.063,2.4-5.456.216-3.273.312-5.138.312-5.138h-.4c-.2,1.51-.8,2.476-2.307,4.521l-6.431,8.791a16.256,16.256,0,0,0-.905,1.362V135.3c0-2.261.2-3.123,1.205-4.521l9.141-12.516c1.5-2.043,2.239-3.063,2.4-5.456.216-3.273.312-5.138.312-5.138Z" transform="translate(0 0)" fill="#b1994d"/>
    <path id="Path_2" data-name="Path 2" d="M699.578,1100.372c-.466-.563-.462-.568-.462-.568a1.889,1.889,0,0,1-.5-2.1l-.311-.272-2.105,2.878a2.114,2.114,0,0,0-.027,2.99c.736.9,1.048,1.237,1.048,1.237a.725.725,0,0,1,0,1.042h0l-1.149,1.57a1.808,1.808,0,0,0-.086,2.417c.466.563.461.568.461.568a1.889,1.889,0,0,1,.5,2.1l.311.272,2.105-2.878a2.113,2.113,0,0,0,.027-2.989c-.736-.9-1.048-1.237-1.048-1.237l-.022-.027h0a.7.7,0,0,1,0-.989h0l1.168-1.6A1.807,1.807,0,0,0,699.578,1100.372Z" transform="translate(-82.256 -897.513)" fill="#b1994d"/>
  </g>
</svg>
